<ttFont>
          <CharString index="0">
            313 95 rmoveto
            -102 callgsubr
            -212 133 -40 99 80 62 20 25 46 vhcurveto
            -81 callsubr
            -27 315 rmoveto
            64 31 -60 -63 6 hvcurveto
            -201 hlineto
            89 7 34 34 59 hhcurveto
            return
          </CharString>
          <CharString index="1">
            285 506 rmoveto
            -45 callsubr
            -91 -166 -166 84 -91 152 152 84 91 166 166 -84 91 -152 hvcurveto
            -415 vmoveto
            -71 -45 26 132 132 45 26 71 71 45 -26 -132 -132 -45 -26 -71 hvcurveto
            return
          </CharString>
          <CharString index="2">
            36 -56 rlineto
            80 hlineto
            -92 122 rlineto
            -48 hlineto
            -91 -122 rlineto
            79 hlineto
            return
          </CharString>
          <CharString index="3">
            rmoveto
            76 vlineto
            -101 -119 -101 219 -102 -119 rrcurveto
            -76 vlineto
            102 119 101 -219 101 119 rrcurveto
            endchar
          </CharString>
          <CharString index="4">
            -80 -30 -33 -75 -74 -30 33 80 vhcurveto
            289 -121 -273 vlineto
            -147 84 -87 141 142 84 87 147 vhcurveto
            return
          </CharString>
          <CharString index="5">
            rmoveto
            67 hlineto
            93 117 rlineto
            -98 hlineto
            endchar
          </CharString>
          <CharString index="6">
            380 499 rmoveto
            -110 -348 -112 348 -35 callsubr
            179 -473 rlineto
            -47 -17 -35 -74 -44 hhcurveto
            -21 -19 5 7 -17 hvcurveto
            -100 vlineto
            -8 22 25 -6 29 hhcurveto
            52 72 22 163 60 hvcurveto
            190 511 rlineto
            return
          </CharString>
          <CharString index="7">
            787 701 rmoveto
            -89 -57 31 -44 rlineto
            -19 -33 -14 -10 -28 hhcurveto
            -8 96 -120 -395 hlineto
            -103 callgsubr
            233 vlineto
            -1 5 5 0 6 hhcurveto
            30 33 12 27 43 hvcurveto
            84 54 rlineto
            return
          </CharString>
          <CharString index="8">
            rmoveto
            -36 56 rlineto
            -80 hlineto
            92 -122 rlineto
            48 hlineto
            91 122 rlineto
            -79 hlineto
            endchar
          </CharString>
          <CharString index="9">
            345 382 rmoveto
            -106 157 -160 vlineto
            -10 -37 -39 -7 -42 hhcurveto
            -105 -98 29 206 205 98 29 105 75 70 -20 -28 63 hvcurveto
            110 vlineto
            26 -66 -75 19 -79 -79 callgsubr
            92 81 24 33 68 hvcurveto
            333 return
          </CharString>
          <CharString index="10">
            169 362 rmoveto
            32 36 10 50 47 38 -10 -14 30 vhcurveto
            91 vlineto
            22 -38 -46 14 -52 hhcurveto
            -99 -86 -51 -105 hvcurveto
            -173 238 48 -82 vvcurveto
            -27 -6 -21 -77 -57 -48 20 24 -36 vhcurveto
            -107 vlineto
            -24 42 53 -17 63 hhcurveto
            114 72 63 83 hvcurveto
            204 -238 -57 77 vvcurveto
            return
          </CharString>
          <CharString index="11">
            -84 callsubr
            hintmask 11110010
            0 -65 -17 -69 vvcurveto
            -69 46 -42 83 83 46 42 69 69 -64 17 0 vhcurveto
            -65 118 rmoveto
            hintmask 11101100
            -85 callgsubr
            hintmask 11110010
            -76 callsubr
          </CharString>
          <CharString index="12">
            -77 callgsubr
            620 524 rmoveto
            -89 -57 31 -44 -31 -18 -15 -10 -25 -1 rlinecurve
            73 -37 -70 39 -99 hhcurveto
            -45 callsubr
            -91 -166 -166 84 -91 152 152 84 91 166 32 -3 30 -7 27 hvcurveto
            26 3 28 13 36 22 84 54 rcurveline
            11 callsubr
            132 45 26 71 71 45 -26 -132 -132 -45 -26 -71 hvcurveto
            return
          </CharString>
          <CharString index="13">
            rmoveto
            -98 hlineto
            93 -117 rlineto
            67 hlineto
            endchar
          </CharString>
          <CharString index="14">
            178 249 rmoveto
            129 52 25 84 46 41 -9 -15 37 vhcurveto
            100 vlineto
            17 -43 -48 11 -29 callsubr
            -92 -166 -166 84 -91 152 53 48 11 17 43 hvcurveto
            100 vlineto
            -15 -37 -41 -10 -46 hhcurveto
            -84 -52 26 128 hvcurveto
            return
          </CharString>
          <CharString index="15">
            rmoveto
            -93 -34 -68 -57 -74 44 -45 78 18 30 4 14 18 hvcurveto
            -70 -13 -63 -12 -27 hhcurveto
            -16 -24 1 6 -18 hvcurveto
            -57 vlineto
            -6 21 22 -4 19 hhcurveto
            50 116 19 179 113 -43 57 -85 hvcurveto
            63 -168 rmoveto
            -6 -10 -20 -12 -33 hhcurveto
            -40 -22 24 36 15 5 54 57 22 44 -16 -95 -3 hvcurveto
            endchar
          </CharString>
          <CharString index="16">
            rmoveto
            -101 -95 101 hlineto
            160 95 -93 callgsubr
          </CharString>
          <CharString index="17">
            655 -72 callgsubr
            -145 hlineto
            -176 -271 -177 271 rlineto
            -145 hlineto
            262 -381 rlineto
            -286 120 286 vlineto
            return
          </CharString>
          <CharString index="18">
            rmoveto
            -93 -48 -62 -122 -122 48 -62 93 94 48 62 122 122 -48 62 -94 hvcurveto
            -294 vmoveto
            -29 -34 13 97 98 34 12 29 30 33 -12 -98 -97 -33 -13 -30 hvcurveto
            return
          </CharString>
          <CharString index="19">
            -60 0 108 169 113 169 108 return
          </CharString>
          <CharString index="20">
            -105 callsubr
            190 175 -104 callsubr
          </CharString>
          <CharString index="21">
            -105 callsubr
            endchar
          </CharString>
          <CharString index="22">
            -260 -40 callsubr
            42 0 103 301 -49 callsubr
            -172 -39 callsubr
            hintmask 1101101000000000
            -26 callsubr
            hintmask 1011110000000000
            -63 callgsubr
            hintmask 1011101000000000
            -63 callsubr
            hintmask 1101110000000000
            -21 callgsubr
            hintmask 1101101000000000
            hintmask 1101100010000000
            -16 -446 rmoveto
            hintmask 1101100100000000
            -97 callgsubr
          </CharString>
          <CharString index="23">
            rmoveto
            0 52 13 61 vvcurveto
            61 -45 36 -72 -72 -45 -36 -61 -61 53 -13 0 vhcurveto
            return
          </CharString>
          <CharString index="24">
            56 31 31 55 54 -31 32 -56 hvcurveto
            -129 vmoveto
            -25 -9 10 33 32 9 11 25 25 9 -11 -32 -33 -9 -10 -25 hvcurveto
            endchar
          </CharString>
          <CharString index="25">
            -44 -21 26 37 26 20 27 45 45 20 -27 -26 -37 -20 -26 -45 hvcurveto
            return
          </CharString>
          <CharString index="26">
            97 vlineto
            -20 -42 -57 -19 -71 hhcurveto
            return
          </CharString>
          <CharString index="27">
            -22 -3 -7 -22 -31 hhcurveto
            return
          </CharString>
          <CharString index="28">
            89 0 109 183 82 184 109 hstem
            131 120 305 -77 callgsubr
            361 -72 callgsubr
            -230 -293 -79 -82 79 -292 230 hlineto
            206 109 115 218 219 -109 115 -206 hvcurveto
            -558 vmoveto
            -110 183 118 82 -118 184 -19 callsubr
          </CharString>
          <CharString index="29">
            -89 -8 103 109 83 123 98 return
          </CharString>
          <CharString index="30">
            rmoveto
            172 hlineto
            -143 -295 rlineto
            76 hlineto
            148 308 rlineto
            51 -253 vlineto
            endchar
          </CharString>
          <CharString index="31">
            -82 callsubr
            endchar
          </CharString>
          <CharString index="32">
            -60 -51 -11 -17 -42 return
          </CharString>
          <CharString index="33">
            -21 36 44 -11 52 hhcurveto
            152 84 91 166 68 -13 54 -27 42 hvcurveto
            -312 -164 rmoveto
            132 45 26 71 25 22 -3 -10 18 vhcurveto
            -176 -208 rlineto
            -3 18 -2 21 24 vvcurveto
            232 hmoveto
            -132 -45 -26 -71 -25 -21 4 10 -18 vhcurveto
            176 208 rlineto
            3 -18 1 -21 -25 vvcurveto
            return
          </CharString>
          <CharString index="34">
            rmoveto
            -234 -71 234 hlineto
            endchar
          </CharString>
          <CharString index="35">
            -98 callsubr
            vlineto
            return
          </CharString>
          <CharString index="36">
            hstem
            -66 callsubr
            return
          </CharString>
          <CharString index="37">
            -21 160 109 return
          </CharString>
          <CharString index="38">
            216 hmoveto
            -120 499 -51 callsubr
            return
          </CharString>
          <CharString index="39">
            -74 -196 rlineto
            90 hlineto
            89 196 rlineto
            return
          </CharString>
          <CharString index="40">
            494 rmoveto
            -105 callsubr
            return
          </CharString>
          <CharString index="41">
            87 120 return
          </CharString>
          <CharString index="42">
            124 106 73 111 hvcurveto
            272 -339 -86 122 vvcurveto
            return
          </CharString>
          <CharString index="43">
            50 116 56 93 53 hstemhm
            42 64 -52 65 104 65 -52 52 hintmask 11101010
            236 return
          </CharString>
          <CharString index="44">
            29 26 5 10 24 hvcurveto
            99 vlineto
            -7 -16 -18 -4 -23 hhcurveto
            return
          </CharString>
          <CharString index="45">
            -8 -55 callsubr
            return
          </CharString>
          <CharString index="46">
            61 120 return
          </CharString>
          <CharString index="47">
            17 5 45 11 67 1 rrcurveto
            104 vlineto
            -143 -3 -106 -50 0 vvcurveto
            return
          </CharString>
          <CharString index="48">
            -93 rmoveto
            -47 callgsubr
            return
          </CharString>
          <CharString index="49">
            -82 -62 callsubr
            return
          </CharString>
          <CharString index="50">
            57 129 58 64 60 hstem
            55 65 125 65 vstem
            188 return
          </CharString>
          <CharString index="51">
            rmoveto
            140 hlineto
            169 190 -169 191 rlineto
            -140 hlineto
            182 -191 rlineto
            return
          </CharString>
          <CharString index="52">
            99 316 99 return
          </CharString>
          <CharString index="53">
            hintmask 11110101
            -4 callgsubr
            hintmask 11110011
            -68 callgsubr
            hintmask 11101101
            -43 callsubr
            return
          </CharString>
          <CharString index="54">
            562 hmoveto
            -240 277 217 222 rlineto
            -159 hlineto
            -168 -183 rlineto
            370 -120 -686 120 163 vlineto
            33 34 165 -197 rlineto
            return
          </CharString>
          <CharString index="55">
            -5 vhcurveto
            -93 vlineto
            190 6 23 87 93 vvcurveto
            return
          </CharString>
          <CharString index="56">
            120 hlineto
            return
          </CharString>
          <CharString index="57">
            54 260 54 hstem
            46 64 154 65 vstem
            187 return
          </CharString>
          <CharString index="58">
            103 148 -20 hstemhm
            108 -1 callgsubr
            238 return
          </CharString>
          <CharString index="59">
            -41 callsubr
            232 return
          </CharString>
          <CharString index="60">
            -10 -4 -4 -14 -19 hhcurveto
            return
          </CharString>
          <CharString index="61">
            -8 107 177 106 186 107 return
          </CharString>
          <CharString index="62">
            -152 -84 return
          </CharString>
          <CharString index="63">
            207 114 rmoveto
            553 -120 -667 441 114 vlineto
            return
          </CharString>
          <CharString index="64">
            396 11 rmoveto
            -437 -707 rlineto
            80 hlineto
            437 707 rlineto
            return
          </CharString>
          <CharString index="65">
            rmoveto
            -55 -32 -32 -54 -55 32 -31 55 return
          </CharString>
          <CharString index="66">
            49 120 return
          </CharString>
          <CharString index="67">
            -173 -21 144 return
          </CharString>
          <CharString index="68">
            108 -70 70 return
          </CharString>
          <CharString index="69">
            -105 callsubr
            87 -757 -93 callgsubr
          </CharString>
          <CharString index="70">
            12 -2 callsubr
            213 -547 return
          </CharString>
          <CharString index="71">
            rmoveto
            -117 -111 117 hlineto
            return
          </CharString>
          <CharString index="72">
            rlineto
            -127 hlineto
            return
          </CharString>
          <CharString index="73">
            rmoveto
            -68 callsubr
            47 hmoveto
            -68 callsubr
            endchar
          </CharString>
          <CharString index="74">
            121 vstem
            return
          </CharString>
          <CharString index="75">
            25 -32 -57 9 -33 hhcurveto
            -145 -81 -85 -136 -107 63 -126 173 157 80 106 209 return
          </CharString>
          <CharString index="76">
            rmoveto
            89 7 34 34 59 hhcurveto
            64 31 -60 -63 6 hvcurveto
            return
          </CharString>
          <CharString index="77">
            -32 callgsubr
            hstemhm
            return
          </CharString>
          <CharString index="78">
            -53 hhcurveto
            -45 callsubr
            return
          </CharString>
          <CharString index="79">
            21 -15 callsubr
            return
          </CharString>
          <CharString index="80">
            84 rmoveto
            -68 callsubr
            return
          </CharString>
          <CharString index="81">
            346 396 rmoveto
            103 vlineto
            return
          </CharString>
          <CharString index="82">
            -120 -55 callgsubr
            return
          </CharString>
          <CharString index="83">
            21 -21 724 117 -10 callsubr
            return
          </CharString>
          <CharString index="84">
            -8 -7 1 -7 hhcurveto
            -79 vlineto
            -3 16 24 -1 12 hhcurveto
            111 55 -23 callgsubr
            hvcurveto
            return
          </CharString>
          <CharString index="85">
            81 446 rmoveto
            -446 120 378 vlineto
            return
          </CharString>
          <CharString index="86">
            -27 0 120 427 120 return
          </CharString>
          <CharString index="87">
            82 121 return
          </CharString>
          <CharString index="88">
            110 hlineto
            139 56 -65 -160 -159 -56 -65 -139 hvcurveto
            endchar
          </CharString>
          <CharString index="89">
            89 -196 rlineto
            90 hlineto
            -74 196 rlineto
            return
          </CharString>
          <CharString index="90">
            117 -71 callsubr
            return
          </CharString>
          <CharString index="91">
            90 -14 callgsubr
            return
          </CharString>
          <CharString index="92">
            -21 401 106 return
          </CharString>
          <CharString index="93">
            -42 callgsubr
            hlineto
            return
          </CharString>
          <CharString index="94">
            -176 -8 103 308 104 return
          </CharString>
          <CharString index="95">
            hhcurveto
            80 62 20 25 46 hvcurveto
            97 vlineto
            return
          </CharString>
          <CharString index="96">
            -107 -197 102 return
          </CharString>
          <CharString index="97">
            -71 callsubr
            7 callsubr
            return
          </CharString>
          <CharString index="98">
            101 59 101 return
          </CharString>
          <CharString index="99">
            348 0 108 42 100 27 113 169 108 return
          </CharString>
          <CharString index="100">
            -34 callgsubr
            105 472 106 return
          </CharString>
          <CharString index="101">
            109 83 123 0 98 0 return
          </CharString>
          <CharString index="102">
            -67 -8 -3 callsubr
            return
          </CharString>
          <CharString index="103">
            -21 295 64 hstem
            40 return
          </CharString>
          <CharString index="104">
            115 456 112 return
          </CharString>
          <CharString index="105">
            -72 callgsubr
            -120 return
          </CharString>
          <CharString index="106">
            -336 21 -21 return
          </CharString>
          <CharString index="107">
            122 -20 return
          </CharString>
          <CharString index="108">
            -20 -45 callgsubr
            54 101 54 121 cntrmask 00011100
            return
          </CharString>
          <CharString index="109">
            0 109 449 109 return
          </CharString>
          <CharString index="110">
            120 194 -77 callgsubr
            return
          </CharString>
          <CharString index="111">
            -197 -8 104 308 103 return
          </CharString>
          <CharString index="112">
            9 callgsubr
            hvcurveto
            return
          </CharString>
          <CharString index="113">
            103 109 83 123 98 hstem
            -23 callgsubr
            return
          </CharString>
          <CharString index="114">
            vstem
            -62 callgsubr
            return
          </CharString>
          <CharString index="115">
            hstemhm
            56 119 -13 222 -25 121 return
          </CharString>
          <CharString index="116">
            vlineto
            5 21 26 3 31 hhcurveto
            69 46 -33 return
          </CharString>
          <CharString index="117">
            567 rmoveto
            110 -123 -110 vlineto
            return
          </CharString>
          <CharString index="118">
            -400 -339 rmoveto
            -71 -45 26 132 return
          </CharString>
        <CharString name=".notdef">
          -148 endchar
        </CharString>
        <CharString name="A">
          -78 callgsubr
          398 -20 hstem
          -33 callgsubr
          129 hlineto
          -265 667 rlineto
          -132 hlineto
          -265 -667 rlineto
          129 hlineto
          61 160 rlineto
          282 hlineto
          61 -160 rlineto
          -302 269 rmoveto
          100 262 99 -262 rlineto
          -199 hlineto
          endchar
        </CharString>
        <CharString name="AE">
          -8 callsubr
          hstem
          492 -77 callgsubr
          936 559 rmoveto
          108 -489 vlineto
          -422 -667 rlineto
          142 hlineto
          92 150 rlineto
          233 -150 -14 callsubr
          -120 -309 rmoveto
          -172 hlineto
          172 282 rlineto
          endchar
        </CharString>
        <CharString name="AEacute">
          -8 callsubr
          174 -20 hstem
          492 -77 callgsubr
          936 559 rmoveto
          108 -489 vlineto
          -422 -667 rlineto
          142 hlineto
          92 150 rlineto
          233 -150 -14 callsubr
          -120 -309 rmoveto
          -172 hlineto
          172 282 rlineto
          28 192 -102 callsubr
        </CharString>
        <CharString name="Aacute">
          -78 callgsubr
          455 117 hstem
          -105 callgsubr
          -131 455 -102 callsubr
        </CharString>
        <CharString name="Abreve">
          -78 callgsubr
          436 -30 callsubr
          241 222 hintmask 11011000
          -105 callgsubr
          -58 543 rmoveto
          hintmask 11101000
          -80 callsubr
          hintmask 11011000
          -99 callgsubr
          endchar
        </CharString>
        <CharString name="Abreveacute">
          -26 callgsubr
          19 117 hstemhm
          241 222 hintmask 11011100
          -105 callgsubr
          -58 537 rmoveto
          hintmask 11101100
          -80 callsubr
          hintmask 11011100
          -99 callgsubr
          -148 19 -102 callsubr
        </CharString>
        <CharString name="Abrevedotbelow">
          56 -145 95 71 -70 callsubr
          430 -30 callsubr
          241 222 -161 101 hintmask 11101100
          -105 callgsubr
          -58 537 rmoveto
          hintmask 11110100
          -80 callsubr
          hintmask 11101100
          -99 callgsubr
          hintmask 11101010
          -60 -856 -93 callgsubr
        </CharString>
        <CharString name="Abrevegrave">
          -26 callgsubr
          -107 243 hstemhm
          241 222 hintmask 11010100
          -105 callgsubr
          -58 537 rmoveto
          hintmask 11100100
          -80 callsubr
          hintmask 11010100
          -99 callgsubr
          hintmask 11001100
          -136 136 -94 callsubr
        </CharString>
        <CharString name="Abrevehookabove">
          -26 callgsubr
          119 50 hstemhm
          241 186 -186 222 -100 64 hintmask 11011100
          -105 callgsubr
          -58 537 rmoveto
          hintmask 11101100
          -80 callsubr
          hintmask 11011010
          -99 callgsubr
          hintmask 11011001
          -100 95 -104 callgsubr
        </CharString>
        <CharString name="Abrevetilde">
          -26 callgsubr
          hstemhm
          241 222 hintmask 11011000
          -105 callgsubr
          -58 537 rmoveto
          hintmask 11101000
          -80 callsubr
          hintmask 11011000
          -99 callgsubr
          42 59 -104 callsubr
        </CharString>
        <CharString name="Acaron">
          -78 callgsubr
          577 -59 callgsubr
          -98 521 -99 callsubr
        </CharString>
        <CharString name="Acircumflex">
          56 -30 callgsubr
          57 122 -59 callgsubr
          -99 511 rmoveto
          -86 callsubr
        </CharString>
        <CharString name="Acircumflexacute">
          -78 callgsubr
          521 117 hstem
          -105 callgsubr
          -100 -67 callsubr
          107 83 -102 callsubr
        </CharString>
        <CharString name="Acircumflexdotbelow">
          -1 -144 95 0 209 -139 -12 callgsubr
          40 -41 callgsubr
          302 101 hintmask 10111100
          -33 callgsubr
          129 hlineto
          -265 667 rlineto
          -132 hlineto
          -265 -667 rlineto
          129 hlineto
          hintmask 01011100
          61 160 rlineto
          282 hlineto
          hintmask 10111100
          -241 109 rmoveto
          100 262 99 -262 rlineto
          -99 -67 callsubr
          87 -756 -93 callgsubr
        </CharString>
        <CharString name="Acircumflexgrave">
          -78 callgsubr
          638 -59 callgsubr
          -98 -67 callsubr
          -96 200 -94 callsubr
        </CharString>
        <CharString name="Acircumflexhookabove">
          -78 callgsubr
          620 50 hstem
          459 64 vstem
          -105 callgsubr
          -98 -67 callsubr
          142 158 -104 callgsubr
        </CharString>
        <CharString name="Acircumflextilde">
          56 -30 callgsubr
          34 hstem
          -105 callgsubr
          -101 488 rmoveto
          -87 callsubr
        </CharString>
        <CharString name="Acute">
          -390 724 117 hstem
          60 724 -102 callsubr
        </CharString>
        <CharString name="Adieresis">
          -78 callgsubr
          455 95 hstem
          222 -9 callsubr
          vstem
          -105 callgsubr
          -128 550 -91 callsubr
        </CharString>
        <CharString name="Adotaccent">
          -78 callgsubr
          455 95 hstem
          302 101 vstem
          -105 callgsubr
          -48 550 -93 callgsubr
        </CharString>
        <CharString name="Adotbelow">
          56 -145 95 71 -70 callsubr
          398 -20 hstem
          302 101 vstem
          -105 callgsubr
          -48 -319 -93 callgsubr
        </CharString>
        <CharString name="Agrave">
          -78 callgsubr
          455 117 hstem
          -105 callgsubr
          -129 572 -94 callsubr
        </CharString>
        <CharString name="Ahookabove">
          -78 callgsubr
          554 50 hstem
          362 64 vstem
          -105 callgsubr
          -89 530 -104 callgsubr
        </CharString>
        <CharString name="Amacron">
          -78 callgsubr
          467 71 hstem
          -105 callgsubr
          18 538 -73 callsubr
        </CharString>
        <CharString name="Aogonek">
          56 -175 58 138 -70 callsubr
          398 -20 hstem
          -33 callgsubr
          41 hlineto
          -7 -4 -80 -45 -59 -75 callgsubr
          -51 hlineto
          -10 -4 -4 -14 -19 hhcurveto
          -18 callgsubr
          -265 667 rlineto
          -132 hlineto
          -265 -667 rlineto
          129 hlineto
          61 160 rlineto
          282 hlineto
          -241 109 rmoveto
          100 262 99 -262 rlineto
          endchar
        </CharString>
        <CharString name="Aring">
          -78 callgsubr
          426 43 86 43 hstem
          265 53 68 53 vstem
          -105 callgsubr
          -99 598 -42 callsubr
          -83 callsubr
        </CharString>
        <CharString name="Atilde">
          -78 callgsubr
          hstem
          -105 callgsubr
          53 473 -104 callsubr
        </CharString>
        <CharString name="B">
          -2 0 105 184 106 168 104 -35 callgsubr
          231 120 -83 83 -83 120 hintmask 11111000
          479 350 rmoveto
          42 22 37 41 66 vvcurveto
          145 -117 43 -114 vhcurveto
          -240 -667 264 hlineto
          hintmask 11110010
          212 32 119 77 92 -64 43 -52 19 hvcurveto
          -272 213 rmoveto
          118 hlineto
          hintmask 11111000
          49 64 -13 -75 -86 -88 6 -16 hvcurveto
          -127 168 hlineto
          138 -458 rmoveto
          -138 184 134 hlineto
          hintmask 11110100
          56 78 -8 -79 -76 -62 -21 -68 hvcurveto
          endchar
        </CharString>
        <CharString name="C">
          -36 callgsubr
          hstem
          61 -77 callgsubr
          383 100 rmoveto
          -105 -97 28 206 206 97 28 105 72 63 -18 -26 56 hvcurveto
          112 vlineto
          24 -60 -67 16 -75 hhcurveto
          -142 -169 -59 -283 -283 169 -59 142 75 67 16 24 60 hvcurveto
          112 vlineto
          -26 -56 -63 -18 -72 hhcurveto
          endchar
        </CharString>
        <CharString name="Cacute">
          -36 callgsubr
          48 117 hstem
          61 -77 callgsubr
          383 100 rmoveto
          -105 -97 28 206 206 97 28 105 72 63 -18 -26 56 hvcurveto
          112 vlineto
          24 -60 -67 16 -75 hhcurveto
          -142 -169 -59 -283 -283 169 -59 142 75 67 16 24 60 hvcurveto
          112 vlineto
          -26 -56 -63 -18 -72 hhcurveto
          -59 624 -102 callsubr
        </CharString>
        <CharString name="Caron">
          -221 745 -21 0 callsubr
          hstem
          216 790 -99 callsubr
        </CharString>
        <CharString name="Ccaron">
          -36 callgsubr
          170 -20 hstem
          61 -77 callgsubr
          383 100 rmoveto
          -105 -97 28 206 206 97 28 105 72 63 -18 -26 56 hvcurveto
          112 vlineto
          24 -60 -67 16 -75 hhcurveto
          -142 -169 -59 -283 -283 169 -59 142 75 67 16 24 60 hvcurveto
          112 vlineto
          -26 -56 -63 -18 -72 hhcurveto
          -20 690 -99 callsubr
        </CharString>
        <CharString name="Ccedilla">
          -20 -125 225 -107 107 468 108 -38 callgsubr
          hintmask 10110000
          383 568 rmoveto
          72 63 -18 -26 55 hvcurveto
          112 vlineto
          24 -59 -67 16 -75 hhcurveto
          -142 -169 -59 -283 -252 134 -74 130 -14 hvcurveto
          -86 -119 rlineto
          104 hlineto
          hintmask 01110000
          60 118 63 3 57 15 50 21 rlinecurve
          112 vlineto
          -26 -55 -63 -18 -72 hhcurveto
          -105 -97 28 206 206 97 28 105 hvcurveto
          endchar
        </CharString>
        <CharString name="Ccircumflex">
          -36 callgsubr
          0 48 122 -20 -38 callgsubr
          hintmask 11011000
          383 100 rmoveto
          -105 -97 28 206 206 97 28 105 72 63 -18 -26 56 hvcurveto
          112 vlineto
          24 -60 -67 16 -75 hhcurveto
          -142 -169 -59 -283 -283 169 -59 142 75 67 16 24 60 hvcurveto
          112 vlineto
          -26 -56 -63 -18 -72 hhcurveto
          -19 680 rmoveto
          hintmask 10111000
          -86 callsubr
        </CharString>
        <CharString name="Cdotaccent">
          -36 callgsubr
          48 95 hstem
          -61 callsubr
          126 101 vstem
          383 100 rmoveto
          -105 -97 28 206 206 97 28 105 72 63 -18 -26 56 hvcurveto
          112 vlineto
          24 -60 -67 16 -75 hhcurveto
          -142 -169 -59 -283 -283 169 -59 142 75 67 16 24 60 hvcurveto
          112 vlineto
          -26 -56 -63 -18 -72 hhcurveto
          25 719 -93 callgsubr
        </CharString>
        <CharString name="D">
          45 2 callsubr
          -71 callsubr
          305 -77 callgsubr
          -81 callgsubr
          endchar
        </CharString>
        <CharString name="Dbreve">
          22 2 callsubr
          38 63 -63 107 -35 callgsubr
          -13 222 96 120 hintmask 11011010
          -81 callgsubr
          29 703 rmoveto
          hintmask 11101010
          -80 callsubr
          hintmask 11010110
          -99 callgsubr
          endchar
        </CharString>
        <CharString name="Dcaron">
          22 2 callsubr
          179 -20 -71 callsubr
          305 -77 callgsubr
          -81 callgsubr
          -7 681 -99 callsubr
        </CharString>
        <CharString name="Dcroat">
          -79 callsubr
        </CharString>
        <CharString name="Delta">
          81 0 95 572 -20 hstem
          394 -72 callgsubr
          -60 hlineto
          -307 -667 rlineto
          675 hlineto
          -308 667 rlineto
          -220 -572 rmoveto
          190 410 190 -410 rlineto
          -380 hlineto
          endchar
        </CharString>
        <CharString name="Dieresis">
          -230 724 95 hstem
          79 -9 callsubr
          vstem
          180 819 -91 callsubr
        </CharString>
        <CharString name="E">
          -88 callsubr
          -71 callsubr
          cntrmask 11100000
          -101 callgsubr
          169 hlineto
          endchar
        </CharString>
        <CharString name="Eacute">
          -88 callsubr
          57 -17 callsubr
          vstem
          -100 callgsubr
          64 334 -102 callsubr
        </CharString>
        <CharString name="Ebreve">
          -88 callsubr
          38 63 -63 107 -35 callgsubr
          -1 222 hintmask 11101100
          -100 callgsubr
          151 422 rmoveto
          hintmask 11110100
          -80 callsubr
          hintmask 11101010
          -99 callgsubr
          endchar
        </CharString>
        <CharString name="Ecaron">
          -88 callsubr
          179 -20 hstem
          87 120 vstem
          -100 callgsubr
          110 400 -99 callsubr
        </CharString>
        <CharString name="Ecircumflex">
          -88 callsubr
          -2 callgsubr
          87 120 hintmask 11101100
          -100 callgsubr
          110 390 rmoveto
          hintmask 11011100
          -86 callsubr
        </CharString>
        <CharString name="Ecircumflexacute">
          -88 callsubr
          123 -17 callsubr
          vstem
          -100 callgsubr
          101 373 rmoveto
          -105 callsubr
          107 83 -102 callsubr
        </CharString>
        <CharString name="Ecircumflexdotbelow">
          -60 -145 95 50 108 169 113 169 108 0 40 122 -20 -35 callgsubr
          56 101 hintmask 11110111
          -100 callgsubr
          106 373 rmoveto
          hintmask 11101111
          -38 callsubr
        </CharString>
        <CharString name="Ecircumflexgrave">
          -88 callsubr
          123 -17 callsubr
          vstem
          -100 callgsubr
          104 373 rmoveto
          -105 callsubr
          -96 200 -94 callsubr
        </CharString>
        <CharString name="Ecircumflexhookabove">
          -88 callsubr
          40 232 -50 50 -35 callgsubr
          207 74 hintmask 11110110
          -100 callgsubr
          101 373 rmoveto
          -105 callsubr
          142 158 rmoveto
          -12 -13 -6 -20 -2 vhcurveto
          -55 48 23 vlineto
          0 49 7 48 vvcurveto
          48 -41 23 -50 -12 -19 -1 -2 -10 vhcurveto
          -49 vlineto
          hintmask 11101110
          1 9 10 1 12 hhcurveto
          19 18 -5 -19 hvcurveto
          endchar
        </CharString>
        <CharString name="Ecircumflextilde">
          -88 callsubr
          0 34 -35 callgsubr
          hintmask 11101000
          -100 callgsubr
          103 367 rmoveto
          hintmask 11011000
          -87 callsubr
        </CharString>
        <CharString name="Edieresis">
          -88 callsubr
          57 95 -35 callgsubr
          -17 -9 callsubr
          hintmask 11111010
          -100 callgsubr
          hintmask 11110110
          84 429 -91 callsubr
        </CharString>
        <CharString name="Edotaccent">
          -88 callsubr
          57 95 -71 callsubr
          60 101 vstem
          -100 callgsubr
          161 429 -93 callgsubr
        </CharString>
        <CharString name="Edotbelow">
          -60 -145 95 50 108 169 113 169 108 -71 callsubr
          55 101 vstem
          -100 callgsubr
          156 -440 -93 callgsubr
        </CharString>
        <CharString name="Egrave">
          -88 callsubr
          57 -17 callsubr
          vstem
          -100 callgsubr
          85 451 -94 callsubr
        </CharString>
        <CharString name="Ehookabove">
          -88 callsubr
          156 50 -71 callsubr
          121 64 vstem
          -100 callgsubr
          121 409 -104 callgsubr
        </CharString>
        <CharString name="Emacron">
          -88 callsubr
          69 71 -71 callsubr
          vstem
          -100 callgsubr
          228 417 -73 callsubr
        </CharString>
        <CharString name="Eng">
          127 -193 93 121 -12 callgsubr
          -20 -35 callgsubr
          266 213 -15 callgsubr
          hintmask 11110100
          566 -72 callgsubr
          -494 vlineto
          -343 494 rlineto
          -136 -55 callgsubr
          498 hlineto
          359 -517 rlineto
          hintmask 11111000
          -42 -1 -34 -92 -52 callsubr
          674 vlineto
          endchar
        </CharString>
        <CharString name="Eogonek">
          -60 -175 58 117 108 169 113 169 108 -71 callsubr
          149 175 vstem
          487 -59 callsubr
          34 48 37 41 23 hvcurveto
          108 -324 169 281 113 -281 169 324 108 -444 -667 356 vlineto
          -7 -4 -80 -45 -59 -75 callgsubr
          endchar
        </CharString>
        <CharString name="Eth">
          -79 callsubr
        </CharString>
        <CharString name="Etilde">
          -88 callsubr
          -71 callsubr
          cntrmask 11100000
          -100 callgsubr
          268 352 -104 callsubr
        </CharString>
        <CharString name="Euro">
          56 -8 108 101 87 92 87 101 108 hstem
          127 -77 callgsubr
          449 568 rmoveto
          72 63 -18 -26 56 hvcurveto
          112 vlineto
          24 -60 -67 16 -75 hhcurveto
          -116 -134 -40 -169 -45 hvcurveto
          -93 -87 79 hlineto
          -1 -14 -1 -16 -16 vvcurveto
          -16 1 -16 1 -14 vhcurveto
          -79 -87 93 hlineto
          -170 45 134 -39 116 hhcurveto
          75 67 16 24 60 hvcurveto
          112 vlineto
          -26 -56 -63 -18 -72 hhcurveto
          -76 -72 15 86 -34 hvcurveto
          259 87 -277 hlineto
          -1 14 -1 15 17 vvcurveto
          17 1 15 1 14 vhcurveto
          277 87 -259 hlineto
          86 34 72 15 76 hhcurveto
          endchar
        </CharString>
        <CharString name="F">
          -90 21 -21 277 113 169 108 -71 callsubr
          vstem
          87 -72 callgsubr
          -55 callgsubr
          277 269 113 -269 169 311 108 -431 vlineto
          endchar
        </CharString>
        <CharString name="Fdotaccent">
          -90 21 -21 277 113 169 108 57 95 -71 callsubr
          56 101 vstem
          87 -72 callgsubr
          -55 callgsubr
          277 269 113 -269 169 311 108 vlineto
          -154 152 -93 callgsubr
        </CharString>
        <CharString name="G">
          39 -46 callsubr
          hstem
          -61 callsubr
          321 111 vstem
          -98 callsubr
          -268 vlineto
          endchar
        </CharString>
        <CharString name="Gacute">
          29 -46 callsubr
          49 117 hstem
          -61 callsubr
          321 111 vstem
          -72 callsubr
          -287 342 -102 callsubr
        </CharString>
        <CharString name="Gbreve">
          39 -46 callsubr
          30 63 -63 107 -38 callgsubr
          75 222 24 111 hintmask 11101111
          -72 callsubr
          -205 430 rmoveto
          hintmask 11110111
          -80 callsubr
          hintmask 11101111
          -99 callgsubr
          endchar
        </CharString>
        <CharString name="Gcaron">
          39 -46 callsubr
          171 -20 hstem
          -61 callsubr
          321 111 vstem
          -72 callsubr
          -246 408 -99 callsubr
        </CharString>
        <CharString name="Gcircumflex">
          39 -46 callsubr
          0 49 122 -20 -38 callgsubr
          321 111 hintmask 11101110
          -72 callsubr
          -250 398 rmoveto
          hintmask 11011110
          -86 callsubr
        </CharString>
        <CharString name="Gcommaaccent">
          39 -40 callsubr
          42 0 107 0 177 0 106 0 186 0 107 -38 callgsubr
          123 108 -67 67 90 111 hintmask 1100101101100000
          345 382 rmoveto
          -106 157 -160 vlineto
          hintmask 1010101110100000
          -10 -37 -39 -7 -42 hhcurveto
          -105 -98 29 206 205 98 29 105 75 70 -20 -28 63 hvcurveto
          110 vlineto
          26 -66 -75 19 -79 -79 callgsubr
          92 81 24 33 68 hvcurveto
          hintmask 1100101101100000
          333 vlineto
          -271 -432 rmoveto
          hintmask 1101010110100000
          -97 callgsubr
        </CharString>
        <CharString name="Gdotaccent">
          39 -46 callsubr
          49 95 hstem
          -61 callsubr
          133 101 87 111 vstem
          -72 callsubr
          -198 437 -93 callgsubr
        </CharString>
        <CharString name="Grave">
          -393 724 117 hstem
          143 841 -94 callsubr
        </CharString>
        <CharString name="H">
          50 21 -21 277 113 277 -20 -71 callsubr
          283 -77 callgsubr
          490 -72 callgsubr
          -277 -283 277 -25 callsubr
          277 283 -277 120 667 -120 vlineto
          endchar
        </CharString>
        <CharString name="Hbar">
          112 21 -21 277 113 87 82 108 -20 hstem
          119 120 283 -77 callgsubr
          718 559 rmoveto
          -76 108 -120 -108 -283 108 -120 -108 -76 -82 76 -477 120 277 283 -277 120 477 76 hlineto
          -196 -87 rmoveto
          -283 87 283 hlineto
          endchar
        </CharString>
        <CharString name="Hcircumflex">
          50 21 -21 277 113 456 -20 -71 callsubr
          283 -77 callgsubr
          490 -72 callgsubr
          -277 -283 277 -25 callsubr
          277 283 -277 120 667 vlineto
          -262 113 rmoveto
          -86 callsubr
        </CharString>
        <CharString name="Hungarumlaut">
          -257 724 117 hstem
          60 724 rmoveto
          67 hlineto
          93 117 rlineto
          -98 hlineto
          72 -117 -102 callsubr
        </CharString>
        <CharString name="I">
          21 -21 667 -6 callgsubr
          hmoveto
          667 -25 callsubr
          vlineto
          endchar
        </CharString>
        <CharString name="Iacute">
          -24 callsubr
          -90 57 -102 callsubr
        </CharString>
        <CharString name="Ibreve">
          21 -21 705 -30 callsubr
          36 222 -51 51 hintmask 10101000
          -62 callgsubr
          -19 145 rmoveto
          hintmask 11010000
          -80 callsubr
          hintmask 10110000
          -99 callgsubr
          endchar
        </CharString>
        <CharString name="Icircumflex">
          21 -21 846 -20 -10 callsubr
          -61 113 rmoveto
          -86 callsubr
        </CharString>
        <CharString name="Idieresis">
          21 -21 724 95 hstem
          16 -9 callsubr
          7 callsubr
          -90 152 -91 callsubr
        </CharString>
        <CharString name="Idotaccent">
          21 -21 724 95 -10 callsubr
          -10 152 -93 callgsubr
        </CharString>
        <CharString name="Idotbelow">
          -145 95 71 -12 callgsubr
          -6 callgsubr
          667 rmoveto
          -25 callsubr
          hlineto
          -10 -50 -93 callgsubr
        </CharString>
        <CharString name="Igrave">
          -24 callsubr
          -92 174 -94 callsubr
        </CharString>
        <CharString name="Ihookabove">
          21 -21 823 50 -35 callgsubr
          -50 64 hintmask 11100000
          -62 callgsubr
          hintmask 11010000
          -50 132 -104 callgsubr
        </CharString>
        <CharString name="Imacron">
          21 -21 736 71 hstem
          -62 callgsubr
          57 140 -73 callsubr
        </CharString>
        <CharString name="Iogonek">
          -175 58 138 -12 callgsubr
          -20 hstemhm
          32 175 -15 callgsubr
          hintmask 11110000
          136 -117 rmoveto
          -18 callgsubr
          667 vlineto
          hintmask 11101000
          -120 -667 33 hlineto
          hintmask 11110000
          -4 -2 -84 -46 -60 -75 callgsubr
          -51 hlineto
          -47 callsubr
          endchar
        </CharString>
        <CharString name="Itilde">
          21 -21 hstem
          -62 callgsubr
          92 75 -104 callsubr
        </CharString>
        <CharString name="J">
          -158 -8 112 563 -20 hstem
          275 -77 callgsubr
          275 -72 callgsubr
          -448 vlineto
          -96 -40 -19 -69 -59 -45 23 27 -33 vhcurveto
          -119 vlineto
          -25 40 50 -18 61 hhcurveto
          80 135 30 201 hvcurveto
          444 -120 vlineto
          endchar
        </CharString>
        <CharString name="Jcircumflex">
          -158 -8 112 563 57 0 callsubr
          hstem
          275 -77 callgsubr
          275 -72 callgsubr
          -448 vlineto
          -96 -40 -19 -69 -59 -45 23 27 -33 vhcurveto
          -119 vlineto
          -25 40 50 -18 61 hhcurveto
          80 135 30 201 hvcurveto
          444 vlineto
          -60 113 rmoveto
          -86 callsubr
        </CharString>
        <CharString name="K">
          43 -24 callgsubr
          87 -77 callgsubr
          -53 callgsubr
          269 293 rlineto
          endchar
        </CharString>
        <CharString name="Kcommaaccent">
          43 -16 callgsubr
          667 -20 -35 callgsubr
          65 -39 callsubr
          hintmask 11110100
          -53 callgsubr
          rlineto
          -41 -424 rmoveto
          hintmask 11111000
          -97 callgsubr
        </CharString>
        <CharString name="L">
          -99 0 114 553 -6 callgsubr
          114 rmoveto
          553 -120 -667 441 114 -321 vlineto
          endchar
        </CharString>
        <CharString name="Lacute">
          -99 0 114 610 -17 callsubr
          vstem
          -44 callsubr
          -415 610 -102 callsubr
        </CharString>
        <CharString name="Lcaron">
          -99 0 114 553 -20 -35 callgsubr
          63 -39 callsubr
          hintmask 11101000
          -44 callsubr
          -220 553 rmoveto
          hintmask 11110000
          -97 callgsubr
        </CharString>
        <CharString name="Lcommaaccent">
          -99 -40 callsubr
          50 0 114 553 -20 -35 callgsubr
          47 -39 callsubr
          hintmask 11011100
          207 114 rmoveto
          553 -120 -667 441 vlineto
          hintmask 10111100
          114 vlineto
          hintmask 11011010
          -236 -164 rmoveto
          hintmask 11011100
          -97 callgsubr
        </CharString>
        <CharString name="Ldot">
          -99 0 114 174 95 284 -20 -71 callsubr
          160 101 vstem
          -44 callsubr
          -60 269 -93 callgsubr
        </CharString>
        <CharString name="Lslash">
          -99 0 114 553 -20 hstemhm
          4 208 -15 callgsubr
          hintmask 11100000
          212 114 rmoveto
          210 vlineto
          141 89 rlineto
          91 vlineto
          -141 -89 rlineto
          252 vlineto
          hintmask 11010000
          -120 -327 hlineto
          hintmask 11100000
          -88 -56 rlineto
          -91 vlineto
          88 56 rlineto
          -249 441 114 vlineto
          endchar
        </CharString>
        <CharString name="M">
          180 -24 callgsubr
          87 120 412 -77 callgsubr
          606 -72 callgsubr
          -193 -279 -193 279 rlineto
          -133 -55 callgsubr
          493 hlineto
          206 -295 206 295 rlineto
          -493 120 667 -133 vlineto
          endchar
        </CharString>
        <CharString name="Macron">
          -245 736 71 hstem
          320 807 -73 callsubr
        </CharString>
        <CharString name="N">
          127 -24 callgsubr
          87 120 359 -77 callgsubr
          -83 callgsubr
          -120 hlineto
          endchar
        </CharString>
        <CharString name="NULL">
          -648 endchar
        </CharString>
        <CharString name="Nacute">
          127 21 -21 724 -17 callsubr
          359 -77 callgsubr
          -83 callgsubr
          hlineto
          -332 57 -102 callsubr
        </CharString>
        <CharString name="Ncaron">
          127 21 -21 846 -20 -71 callsubr
          359 -77 callgsubr
          -83 callgsubr
          hlineto
          -288 123 -99 callsubr
        </CharString>
        <CharString name="Ncommaaccent">
          127 -16 callgsubr
          667 -20 -35 callgsubr
          108 -39 callsubr
          143 120 hintmask 11110110
          -83 callgsubr
          hlineto
          -333 -717 rmoveto
          hintmask 11111010
          -97 callgsubr
        </CharString>
        <CharString name="Ntilde">
          127 21 -21 -71 callsubr
          359 -77 callgsubr
          -83 callgsubr
          hlineto
          -147 75 -104 callsubr
        </CharString>
        <CharString name="O">
          -58 callgsubr
          hstem
          -61 callsubr
          383 -77 callgsubr
          -106 callgsubr
          endchar
        </CharString>
        <CharString name="OE">
          365 0 108 -95 -21 285 113 169 108 8 -20 hstemhm
          60 120 323 120 hintmask 10110110
          947 559 rmoveto
          108 -444 -13 vlineto
          hintmask 01101110
          15 -43 -46 6 -43 -79 callgsubr
          43 46 5 16 43 hvcurveto
          hintmask 10110110
          -13 -42 callgsubr
          vlineto
          -236 -462 rmoveto
          -107 -100 29 208 207 100 28 107 40 37 -6 -16 39 hvcurveto
          -432 vlineto
          -16 -40 -39 -2 -37 hhcurveto
          endchar
        </CharString>
        <CharString name="Oacute">
          -58 callgsubr
          49 117 hstem
          -61 callsubr
          383 -77 callgsubr
          -106 callgsubr
          -40 627 -102 callsubr
        </CharString>
        <CharString name="Obreve">
          -58 callgsubr
          30 63 -63 107 -38 callgsubr
          80 222 81 120 hintmask 11011110
          -106 callgsubr
          41 715 rmoveto
          hintmask 11101110
          -80 callsubr
          hintmask 11011110
          -99 callgsubr
          endchar
        </CharString>
        <CharString name="Ocircumflex">
          -58 callgsubr
          0 49 122 -20 -38 callgsubr
          383 120 hintmask 11011100
          -106 callgsubr
          683 vmoveto
          hintmask 10111100
          -86 callsubr
        </CharString>
        <CharString name="Ocircumflexacute">
          -58 callgsubr
          115 117 hstem
          -61 callsubr
          383 -77 callgsubr
          -106 callgsubr
          666 vmoveto
          -105 callsubr
          107 83 -102 callsubr
        </CharString>
        <CharString name="Ocircumflexdotbelow">
          99 -7 callsubr
          0 32 122 -20 -38 callgsubr
          141 101 141 120 cntrmask 00000111
          hintmask 11101111
          -106 callgsubr
          666 vmoveto
          hintmask 11011111
          -38 callsubr
        </CharString>
        <CharString name="Ocircumflexgrave">
          -58 callgsubr
          115 117 hstem
          -61 callsubr
          383 -77 callgsubr
          -106 callgsubr
          666 vmoveto
          -105 callsubr
          -96 200 -94 callsubr
        </CharString>
        <CharString name="Ocircumflexhookabove">
          -58 callgsubr
          32 232 -50 50 -38 callgsubr
          297 64 22 120 hintmask 11101110
          -106 callgsubr
          666 vmoveto
          36 -56 rlineto
          80 hlineto
          -92 122 rlineto
          -48 hlineto
          -64 callgsubr
        </CharString>
        <CharString name="Ocircumflextilde">
          -58 callgsubr
          0 26 -38 callgsubr
          383 120 hintmask 11011000
          -106 callgsubr
          660 vmoveto
          hintmask 10111000
          -87 callsubr
        </CharString>
        <CharString name="Odieresis">
          -58 callgsubr
          49 95 hstem
          -61 callsubr
          61 -9 callsubr
          61 -77 callgsubr
          -106 callgsubr
          -29 722 -91 callsubr
        </CharString>
        <CharString name="Odotbelow">
          103 -7 callsubr
          hstem
          -61 callsubr
          141 101 141 120 cntrmask 00011100
          -106 callgsubr
          51 -147 -93 callgsubr
        </CharString>
        <CharString name="Ograve">
          -58 callgsubr
          49 117 hstem
          -61 callsubr
          383 -77 callgsubr
          -106 callgsubr
          -21 744 -94 callsubr
        </CharString>
        <CharString name="Ohookabove">
          -58 callgsubr
          148 50 hstem
          -61 callsubr
          200 64 119 -77 callgsubr
          -106 callgsubr
          9 702 -104 callgsubr
        </CharString>
        <CharString name="Ohorn">
          128 -66 callgsubr
          17 -20 -38 callgsubr
          383 120 hintmask 10111000
          749 692 rmoveto
          -89 -57 31 -44 -30 -17 -14 -10 -22 -2 rlinecurve
          hintmask 11011000
          89 -62 -101 24 -90 -79 callgsubr
          142 170 59 282 72 -11 58 -19 46 hvcurveto
          22 5 24 11 30 19 84 54 rcurveline
          hintmask 10111000
          5 callsubr
          hintmask 11011000
          207 92 28 99 100 92 -28 -207 -208 -92 -29 -100 vhcurveto
          endchar
        </CharString>
        <CharString name="Ohornacute">
          128 -66 callgsubr
          49 117 hstem
          -61 callsubr
          383 -77 callgsubr
          749 692 rmoveto
          -89 -57 31 -44 -30 -17 -14 -10 -22 -2 rlinecurve
          89 -62 -101 24 -90 -79 callgsubr
          142 170 59 282 72 -11 58 -19 46 hvcurveto
          22 5 24 11 30 19 84 54 rcurveline
          9 callgsubr
          207 92 28 99 100 92 -28 -207 -208 -92 -29 -100 hvcurveto
          -40 627 -102 callsubr
        </CharString>
        <CharString name="Ohorndotbelow">
          128 -7 callsubr
          17 -20 -38 callgsubr
          142 101 140 120 hintmask 11011110
          749 692 rmoveto
          -89 -57 31 -44 -30 -17 -14 -10 -22 -2 rlinecurve
          hintmask 11101110
          89 -62 -101 24 -90 -79 callgsubr
          142 170 59 282 72 -11 58 -19 46 hvcurveto
          22 5 24 11 30 19 84 54 rcurveline
          hintmask 11011110
          5 callsubr
          hintmask 11101110
          207 92 28 99 100 92 -28 -207 -208 -92 -29 -100 vhcurveto
          52 -147 -93 callgsubr
        </CharString>
        <CharString name="Ohorngrave">
          128 -66 callgsubr
          166 -20 hstem
          -61 callsubr
          383 -77 callgsubr
          749 692 rmoveto
          -89 -57 31 -44 -30 -17 -14 -10 -22 -2 rlinecurve
          89 -62 -101 24 -90 -79 callgsubr
          142 170 59 282 72 -11 58 -19 46 hvcurveto
          22 5 24 11 30 19 84 54 rcurveline
          9 callgsubr
          207 92 28 99 100 92 -28 -207 -208 -92 -29 -100 hvcurveto
          -21 744 -94 callsubr
        </CharString>
        <CharString name="Ohornhookabove">
          128 -66 callgsubr
          148 50 hstem
          -61 callsubr
          203 64 116 -77 callgsubr
          749 692 rmoveto
          -89 -57 31 -44 -30 -17 -14 -10 -22 -2 rlinecurve
          89 -62 -101 24 -90 -79 callgsubr
          142 170 59 282 72 -11 58 -19 46 hvcurveto
          22 5 24 11 30 19 84 54 rcurveline
          9 callgsubr
          207 92 28 99 100 92 -28 -207 -208 -92 -29 -100 hvcurveto
          12 702 -104 callgsubr
        </CharString>
        <CharString name="Ohorntilde">
          128 -66 callgsubr
          hstem
          -61 callsubr
          383 -77 callgsubr
          749 692 rmoveto
          -89 -57 31 -44 -30 -17 -14 -10 -22 -2 rlinecurve
          89 -62 -101 24 -90 -79 callgsubr
          142 170 59 282 72 -11 58 -19 46 hvcurveto
          22 5 24 11 30 19 84 54 rcurveline
          9 callgsubr
          207 92 28 99 100 92 -28 -207 -208 -92 -29 -100 hvcurveto
          154 645 -104 callsubr
        </CharString>
        <CharString name="Ohungarumlaut">
          -58 callgsubr
          49 117 hstem
          -61 callsubr
          383 -77 callgsubr
          -106 callgsubr
          -110 627 rmoveto
          67 hlineto
          93 117 rlineto
          -98 hlineto
          72 -117 -102 callsubr
        </CharString>
        <CharString name="Omacron">
          -58 callgsubr
          61 71 hstem
          -61 callsubr
          383 -77 callgsubr
          -106 callgsubr
          117 710 -73 callsubr
        </CharString>
        <CharString name="Oslash">
          99 -8 105 -76 -21 569 106 -38 callgsubr
          383 120 hintmask 01111000
          -54 callgsubr
          hintmask 10111000
          -74 callgsubr
          endchar
        </CharString>
        <CharString name="Oslashacute">
          99 -8 105 -76 -21 569 106 166 -20 -38 callgsubr
          383 120 hintmask 01111100
          -54 callgsubr
          hintmask 10111100
          -74 callgsubr
          -232 390 -102 callsubr
        </CharString>
        <CharString name="Otilde">
          -58 callgsubr
          hstem
          -61 callsubr
          383 -77 callgsubr
          -106 callgsubr
          152 645 -104 callsubr
        </CharString>
        <CharString name="P">
          -24 21 -21 219 109 228 111 hstem
          86 120 257 119 vstem
          335 -72 callgsubr
          -249 -55 callgsubr
          219 129 hlineto
          157 90 82 142 142 -90 82 -157 hvcurveto
          -9 -339 rmoveto
          -120 228 -51 callsubr
          113 24 -45 -68 -69 -24 -46 -113 hvcurveto
          endchar
        </CharString>
        <CharString name="Q">
          99 -186 92 663 106 -38 callgsubr
          136 99 -99 214 34 120 hintmask 11101100
          685 333 rmoveto
          283 -170 59 -142 -143 -169 -59 -283 -246 129 -77 127 -16 vhcurveto
          -128 85 -52 129 vhcurveto
          92 vlineto
          hintmask 11110100
          -52 -63 19 68 hvcurveto
          132 12 137 74 254 vvcurveto
          -312 -236 rmoveto
          -100 -92 28 208 208 92 28 100 99 93 -28 -208 -208 -93 -28 -99 hvcurveto
          endchar
        </CharString>
        <CharString name="R">
          -22 callgsubr
          -71 callsubr
          263 -77 callgsubr
          444 255 rmoveto
          65 20 81 51 127 vvcurveto
          139 -93 75 -154 vhcurveto
          -256 -55 callgsubr
          235 108 hlineto
          159 -235 rlineto
          145 hlineto
          -175 255 rlineto
          -237 90 rmoveto
          210 133 vlineto
          69 61 -15 -90 -89 -61 -16 -69 hvcurveto
          -133 hlineto
          endchar
        </CharString>
        <CharString name="Racute">
          -22 callgsubr
          57 -17 callsubr
          263 -77 callgsubr
          -82 callgsubr
          -79 379 -102 callsubr
        </CharString>
        <CharString name="Rcaron">
          -22 callgsubr
          179 -20 -71 callsubr
          263 -77 callgsubr
          -82 callgsubr
          -33 445 -99 callsubr
        </CharString>
        <CharString name="Rcommaaccent">
          5 -16 callgsubr
          235 110 0 210 0 112 -35 callgsubr
          61 -39 callsubr
          94 120 hintmask 1110110110000000
          -82 callgsubr
          -34 -395 rmoveto
          hintmask 1101011010000000
          -97 callgsubr
        </CharString>
        <CharString name="S">
          -5 callsubr
          -38 callgsubr
          219 78 -78 120 hintmask 11110000
          -96 callgsubr
          -33 54 71 -24 95 hhcurveto
          hintmask 11101000
          -65 callsubr
          endchar
        </CharString>
        <CharString name="Sacute">
          -5 callsubr
          49 117 -38 callgsubr
          219 78 -78 120 hintmask 11111000
          -96 callgsubr
          -33 54 71 -24 95 hhcurveto
          hintmask 11110100
          -65 callsubr
          60 240 -102 callsubr
        </CharString>
        <CharString name="Scaron">
          -5 callsubr
          171 -20 -38 callgsubr
          219 78 -78 120 hintmask 11111000
          -96 callgsubr
          -33 54 71 -24 95 hhcurveto
          hintmask 11110100
          -65 callsubr
          108 306 -99 callsubr
        </CharString>
        <CharString name="Scedilla">
          -67 -125 232 456 112 -38 callgsubr
          219 78 -78 120 hintmask 11110000
          -96 callgsubr
          45 -28 56 -21 73 -6 -86 -119 rcurveline
          104 hlineto
          60 119 rlineto
          hintmask 11101000
          110 11 88 70 101 272 -339 -86 122 vvcurveto
          endchar
        </CharString>
        <CharString name="Scircumflex">
          -5 callsubr
          0 49 122 -20 -38 callgsubr
          219 78 -78 120 hintmask 11011100
          -96 callgsubr
          -33 54 71 -24 95 hhcurveto
          hintmask 10111010
          -65 callsubr
          112 296 rmoveto
          -86 callsubr
        </CharString>
        <CharString name="Scommaaccent">
          -67 -40 callsubr
          42 0 -3 callsubr
          -38 callgsubr
          52 -39 callsubr
          59 78 -78 120 hintmask 1011110100000000
          -96 callgsubr
          -33 54 71 -24 95 hhcurveto
          hintmask 1101101010000000
          -65 callsubr
          90 -534 rmoveto
          hintmask 1101110100000000
          -97 callgsubr
        </CharString>
        <CharString name="T">
          -77 21 -21 547 120 hstem
          225 -77 callgsubr
          -37 callsubr
          120 547 214 120 -547 vlineto
          endchar
        </CharString>
        <CharString name="Tbar">
          -77 21 -21 279 90 178 120 hstem
          225 -77 callgsubr
          559 547 rmoveto
          120 -547 -120 213 -178 -122 -90 122 -279 120 279 122 90 -122 178 vlineto
          endchar
        </CharString>
        <CharString name="Tcaron">
          -77 21 -21 547 120 179 -20 hstem
          225 -77 callgsubr
          -37 callsubr
          120 547 214 120 vlineto
          -274 123 -99 callsubr
        </CharString>
        <CharString name="Tcommaaccent">
          -73 callgsubr
        </CharString>
        <CharString name="Thorn">
          -36 21 -21 135 109 228 111 84 -20 hstem
          86 120 230 119 vstem
          308 583 rmoveto
          -102 84 -25 callsubr
          135 102 hlineto
          157 90 82 142 142 -90 82 -157 hvcurveto
          -9 -339 rmoveto
          -93 228 93 hlineto
          113 24 -45 -68 -69 -24 -46 -113 hvcurveto
          endchar
        </CharString>
        <CharString name="U">
          -16 callsubr
          565 -20 -71 callsubr
          319 -77 callgsubr
          526 -72 callgsubr
          -395 vlineto
          -103 callgsubr
          385 -120 vlineto
          endchar
        </CharString>
        <CharString name="Uacute">
          -16 callsubr
          622 -17 callsubr
          319 -77 callgsubr
          526 -72 callgsubr
          -395 vlineto
          -103 callgsubr
          385 vlineto
          -320 57 -102 callsubr
        </CharString>
        <CharString name="Ubreve">
          -16 callsubr
          603 63 -63 107 -35 callgsubr
          48 222 -41 callsubr
          hintmask 10111100
          526 -72 callgsubr
          -395 vlineto
          -103 callgsubr
          385 vlineto
          -239 145 rmoveto
          hintmask 11011100
          -80 callsubr
          hintmask 10111100
          -99 callgsubr
          endchar
        </CharString>
        <CharString name="Ucaron">
          -16 callsubr
          744 -20 -71 callsubr
          319 -77 callgsubr
          526 -72 callgsubr
          -395 vlineto
          -103 callgsubr
          385 vlineto
          -279 123 -99 callsubr
        </CharString>
        <CharString name="Ucircumflex">
          -16 callsubr
          744 -20 -71 callsubr
          319 -77 callgsubr
          526 -72 callgsubr
          -395 vlineto
          -103 callgsubr
          385 vlineto
          -280 113 rmoveto
          -86 callsubr
        </CharString>
        <CharString name="Udieresis">
          -16 callsubr
          622 95 -71 callsubr
          29 -9 callsubr
          29 -77 callgsubr
          526 -72 callgsubr
          -395 vlineto
          -103 callgsubr
          385 vlineto
          -309 152 -91 callsubr
        </CharString>
        <CharString name="Udotbelow">
          90 -34 callgsubr
          110 565 -20 -71 callsubr
          109 101 109 120 cntrmask 00011100
          526 -72 callgsubr
          -395 vlineto
          -103 callgsubr
          385 vlineto
          -229 -717 -93 callgsubr
        </CharString>
        <CharString name="Ugrave">
          -16 callsubr
          622 -17 callsubr
          319 -77 callgsubr
          526 -72 callgsubr
          -395 vlineto
          -103 callgsubr
          385 vlineto
          -301 174 -94 callsubr
        </CharString>
        <CharString name="Uhookabove">
          -16 callsubr
          721 50 -71 callsubr
          171 64 84 -77 callgsubr
          526 -72 callgsubr
          -395 vlineto
          -103 callgsubr
          385 vlineto
          -268 132 -104 callgsubr
        </CharString>
        <CharString name="Uhorn">
          167 -14 callgsubr
          599 -20 -71 callsubr
          319 -77 callgsubr
          -100 callsubr
          endchar
        </CharString>
        <CharString name="Uhornacute">
          167 -14 callgsubr
          622 -17 callsubr
          319 -77 callgsubr
          -100 callsubr
          -526 117 -102 callsubr
        </CharString>
        <CharString name="Uhorndotbelow">
          167 -34 callgsubr
          110 599 -20 -71 callsubr
          109 101 109 120 cntrmask 00011100
          -100 callsubr
          -435 -657 -93 callgsubr
        </CharString>
        <CharString name="Uhorngrave">
          167 -14 callgsubr
          739 -20 -71 callsubr
          319 -77 callgsubr
          -100 callsubr
          -504 234 -94 callsubr
        </CharString>
        <CharString name="Uhornhookabove">
          167 -14 callgsubr
          721 50 -71 callsubr
          177 64 78 -77 callgsubr
          -100 callsubr
          -468 192 -104 callgsubr
        </CharString>
        <CharString name="Uhorntilde">
          167 -14 callgsubr
          -71 callsubr
          319 -77 callgsubr
          -100 callsubr
          -334 135 -104 callsubr
        </CharString>
        <CharString name="Uhungarumlaut">
          -16 callsubr
          622 -17 callsubr
          319 -77 callgsubr
          526 -72 callgsubr
          -395 vlineto
          -103 callgsubr
          385 vlineto
          -391 57 rmoveto
          67 hlineto
          93 117 rlineto
          -98 hlineto
          72 -117 -102 callsubr
        </CharString>
        <CharString name="Umacron">
          -16 callsubr
          635 71 -71 callsubr
          319 -77 callgsubr
          526 -72 callgsubr
          -395 vlineto
          -103 callgsubr
          385 vlineto
          -163 141 -73 callsubr
        </CharString>
        <CharString name="Uogonek">
          90 -175 58 110 109 565 -20 -71 callsubr
          319 -77 callgsubr
          399 -59 callsubr
          34 47 36 40 23 hvcurveto
          131 26 74 101 156 vvcurveto
          385 -120 -395 vlineto
          -118 -49 -52 -111 -110 -49 52 118 vhcurveto
          395 -120 -385 vlineto
          -176 93 -105 163 -8 vhcurveto
          -24 -16 -51 -38 -47 -75 callgsubr
          endchar
        </CharString>
        <CharString name="Uring">
          -16 callsubr
          593 43 86 43 -71 callsubr
          73 53 68 53 72 -77 callgsubr
          526 -72 callgsubr
          -395 vlineto
          -103 callgsubr
          385 vlineto
          -279 200 -42 callsubr
          -83 callsubr
        </CharString>
        <CharString name="Utilde">
          -16 callsubr
          -71 callsubr
          319 -77 callgsubr
          526 -72 callgsubr
          -395 vlineto
          -103 callgsubr
          385 vlineto
          -128 75 -104 callsubr
        </CharString>
        <CharString name="V">
          10 -24 callgsubr
          329 149 rmoveto
          -189 518 rlineto
          -128 hlineto
          256 -667 rlineto
          123 hlineto
          255 667 rlineto
          -128 hlineto
          -189 -518 rlineto
          endchar
        </CharString>
        <CharString name="W">
          351 -24 callgsubr
          862 -72 callgsubr
          -151 -493 -159 493 rlineto
          -105 hlineto
          -159 -493 -150 493 rlineto
          -126 hlineto
          214 -667 rlineto
          124 hlineto
          150 465 149 -465 rlineto
          124 hlineto
          214 667 rlineto
          -125 hlineto
          endchar
        </CharString>
        <CharString name="Wacute">
          351 21 -21 841 -20 hstem
          862 -72 callgsubr
          -151 -493 -159 493 rlineto
          -105 hlineto
          -159 -493 -150 493 rlineto
          -126 hlineto
          214 -667 rlineto
          124 hlineto
          150 465 149 -465 rlineto
          124 hlineto
          214 667 rlineto
          -516 57 -102 callsubr
        </CharString>
        <CharString name="Wcircumflex">
          351 -30 callgsubr
          57 0 callsubr
          hstem
          862 -72 callgsubr
          -151 -493 -159 493 rlineto
          -105 hlineto
          -159 -493 -150 493 rlineto
          -126 hlineto
          214 -667 rlineto
          124 hlineto
          150 465 149 -465 rlineto
          124 hlineto
          214 667 rlineto
          -487 113 rmoveto
          -86 callsubr
        </CharString>
        <CharString name="Wdieresis">
          351 21 -21 724 95 hstem
          369 -9 callsubr
          vstem
          862 -72 callgsubr
          -151 -493 -159 493 rlineto
          -105 hlineto
          -159 -493 -150 493 rlineto
          -126 hlineto
          214 -667 rlineto
          124 hlineto
          150 465 149 -465 rlineto
          124 hlineto
          214 667 rlineto
          -517 152 -91 callsubr
        </CharString>
        <CharString name="Wgrave">
          351 21 -21 841 -20 hstem
          862 -72 callgsubr
          -151 -493 -159 493 rlineto
          -105 hlineto
          -159 -493 -150 493 rlineto
          -126 hlineto
          214 -667 rlineto
          124 hlineto
          150 465 149 -465 rlineto
          124 hlineto
          214 667 rlineto
          -521 174 -94 callsubr
        </CharString>
        <CharString name="X">
          1 -24 callgsubr
          622 -72 callgsubr
          -141 hlineto
          -158 -225 -159 225 rlineto
          -146 hlineto
          231 -330 -237 -337 rlineto
          139 hlineto
          168 238 168 -238 rlineto
          146 hlineto
          -240 342 229 325 rlineto
          endchar
        </CharString>
        <CharString name="Y">
          20 -24 callgsubr
          274 -77 callgsubr
          -90 callsubr
          261 381 rlineto
          endchar
        </CharString>
        <CharString name="Yacute">
          20 21 -21 724 117 hstem
          274 -77 callgsubr
          357 724 rmoveto
          93 117 rlineto
          -98 hlineto
          -62 -117 rlineto
          220 -57 rmoveto
          -176 -271 -177 271 rlineto
          -145 hlineto
          262 -381 rlineto
          -286 120 286 vlineto
          261 381 rlineto
          endchar
        </CharString>
        <CharString name="Ycircumflex">
          20 21 -21 846 -20 hstem
          274 -77 callgsubr
          -90 callsubr
          -60 -67 callsubr
          endchar
        </CharString>
        <CharString name="Ydieresis">
          20 21 -21 724 95 hstemhm
          204 101 -31 120 -30 101 hintmask 11010000
          -90 callsubr
          hintmask 11101000
          -89 533 -91 callsubr
        </CharString>
        <CharString name="Ydotbelow">
          20 -145 95 71 -12 callgsubr
          -20 hstem
          274 -77 callgsubr
          -90 callsubr
          -10 -336 -93 callgsubr
        </CharString>
        <CharString name="Ygrave">
          20 21 -21 724 117 hstem
          274 -77 callgsubr
          -90 callsubr
          -78 555 -94 callsubr
        </CharString>
        <CharString name="Yhookabove">
          20 21 -21 823 50 hstemhm
          274 120 -51 64 hintmask 11100000
          -90 callsubr
          hintmask 11010000
          -51 513 -104 callgsubr
        </CharString>
        <CharString name="Ytilde">
          20 21 -21 hstem
          274 -77 callgsubr
          -90 callsubr
          92 456 -104 callsubr
        </CharString>
        <CharString name="Z">
          -21 callsubr
          hstem
          -76 callgsubr
          336 440 rlineto
          endchar
        </CharString>
        <CharString name="Zacute">
          -21 callsubr
          57 117 hstem
          -76 callgsubr
          54 604 -102 callsubr
        </CharString>
        <CharString name="Zcaron">
          -21 callsubr
          179 -20 hstem
          -76 callgsubr
          98 670 -99 callsubr
        </CharString>
        <CharString name="Zdotaccent">
          -21 callsubr
          57 95 hstem
          255 101 vstem
          -76 callgsubr
          145 699 -93 callgsubr
        </CharString>
        <CharString name="a">
          -80 callgsubr
          hstem
          -25 callgsubr
          vstem
          -107 callgsubr
          -63 vlineto
          endchar
        </CharString>
        <CharString name="aacute">
          -80 callgsubr
          57 117 hstem
          -25 callgsubr
          vstem
          -107 callgsubr
          -136 327 -102 callsubr
        </CharString>
        <CharString name="abreve">
          -80 callgsubr
          38 63 -63 107 8 callsubr
          hintmask 11101101
          -107 callgsubr
          -46 415 rmoveto
          hintmask 11110101
          -80 callsubr
          hintmask 11101010
          -99 callgsubr
          endchar
        </CharString>
        <CharString name="abreveacute">
          -80 callgsubr
          32 -32 callgsubr
          19 117 8 callsubr
          hintmask 1110111010000000
          -107 callgsubr
          -46 409 rmoveto
          hintmask 1111011010000000
          -80 callsubr
          hintmask 1110110100000000
          -99 callgsubr
          -148 19 -102 callsubr
        </CharString>
        <CharString name="abrevedotbelow">
          -106 -34 callgsubr
          106 145 77 87 100 32 -30 callsubr
          56 119 -12 222 -161 101 34 121 hintmask 1111011011000000
          -107 callgsubr
          -45 409 rmoveto
          hintmask 1111101011000000
          -80 callsubr
          hintmask 1111010100000000
          -99 callgsubr
          hintmask 1111101011000000
          -60 -696 -93 callgsubr
        </CharString>
        <CharString name="abrevegrave">
          -80 callgsubr
          32 -32 callgsubr
          19 117 8 callsubr
          hintmask 1110111010000000
          -107 callgsubr
          -46 409 rmoveto
          hintmask 1111011010000000
          -80 callsubr
          hintmask 1110110100000000
          -99 callgsubr
          -136 136 -94 callsubr
        </CharString>
        <CharString name="abrevehookabove">
          -80 callgsubr
          32 -32 callgsubr
          119 50 hstemhm
          56 119 -10 222 -100 64 8 121 hintmask 1110111011000000
          -107 callgsubr
          -43 409 rmoveto
          hintmask 1111011011000000
          -80 callsubr
          hintmask 1110110100000000
          -99 callgsubr
          hintmask 1111011011000000
          -100 95 -104 callgsubr
        </CharString>
        <CharString name="abrevetilde">
          -80 callgsubr
          32 -30 callsubr
          56 119 -11 222 -27 121 hintmask 11101101
          -107 callgsubr
          -44 409 rmoveto
          hintmask 11110101
          -80 callsubr
          hintmask 11101010
          -99 callgsubr
          42 59 -104 callsubr
        </CharString>
        <CharString name="acaron">
          -80 callgsubr
          179 -20 hstem
          -25 callgsubr
          vstem
          -107 callgsubr
          -96 393 -99 callsubr
        </CharString>
        <CharString name="acircumflex">
          -106 -8 106 0 145 0 77 0 87 0 100 -2 callgsubr
          -25 callgsubr
          hintmask 1001011110000000
          260 -46 callgsubr
          -75 callsubr
          hvcurveto
          -97 vlineto
          15 37 49 10 60 hhcurveto
          78 28 -40 -54 hvcurveto
          4 -27 -30 3 -31 hhcurveto
          -200 -15 -120 -37 -83 56 -88 158 155 55 87 81 hvcurveto
          135 vlineto
          hintmask 0100101110000000
          137 -78 75 -142 vhcurveto
          100 -333 rmoveto
          -46 -24 -30 -67 -63 -31 28 52 41 32 24 81 27 24 -3 -3 21 vhcurveto
          -80 383 rmoveto
          hintmask 1010011110000000
          -86 callsubr
        </CharString>
        <CharString name="acircumflexacute">
          -80 callgsubr
          123 117 -78 -20 hstemhm
          -25 callgsubr
          hintmask 11101110
          -107 callgsubr
          -87 366 rmoveto
          -105 callsubr
          hintmask 11110110
          107 83 -102 callsubr
        </CharString>
        <CharString name="acircumflexdotbelow">
          -106 -144 95 41 106 0 145 0 77 0 87 0 100 0 40 -41 callgsubr
          56 119 53 101 30 121 hintmask 1100101111100000
          260 -46 callgsubr
          -75 callsubr
          hvcurveto
          -97 vlineto
          15 37 49 10 60 hhcurveto
          78 28 -40 -54 hvcurveto
          4 -27 -30 3 -31 hhcurveto
          -200 -15 -120 -37 -83 56 -88 158 155 55 87 81 hvcurveto
          135 vlineto
          hintmask 1010010111100000
          137 -78 75 -142 vhcurveto
          100 -333 rmoveto
          -46 -24 -30 -67 -63 -31 28 52 41 32 24 81 27 24 -3 -3 21 vhcurveto
          -79 366 rmoveto
          hintmask 1101001111100000
          -105 callsubr
          84 -596 -93 callgsubr
        </CharString>
        <CharString name="acircumflexgrave">
          -80 callgsubr
          123 117 -78 -20 hstemhm
          -25 callgsubr
          hintmask 11101110
          -107 callgsubr
          -81 366 rmoveto
          -105 callsubr
          hintmask 11110110
          -96 200 -94 callsubr
        </CharString>
        <CharString name="acircumflexhookabove">
          -80 callgsubr
          40 232 -110 -20 80 50 hstemhm
          -48 callgsubr
          86 -86 121 -99 64 hintmask 1111001010000000
          -107 callgsubr
          -85 366 rmoveto
          36 -56 rlineto
          80 hlineto
          hintmask 1110111100000000
          -92 122 rlineto
          -48 hlineto
          hintmask 1111001001000000
          -91 -122 rlineto
          79 hlineto
          142 158 rmoveto
          -12 -13 -6 -20 -2 vhcurveto
          -55 48 23 vlineto
          0 49 7 48 vvcurveto
          48 -41 23 -50 -12 -19 -1 -2 -10 vhcurveto
          -49 vlineto
          hintmask 1110111001000000
          1 9 10 1 12 hhcurveto
          19 18 -5 -19 hvcurveto
          endchar
        </CharString>
        <CharString name="acircumflextilde">
          -106 -8 106 0 145 0 77 0 87 0 100 0 34 hstemhm
          -25 callgsubr
          hintmask 10010111
          260 -46 callgsubr
          -75 callsubr
          hvcurveto
          -97 vlineto
          15 37 49 10 60 hhcurveto
          78 28 -40 -54 hvcurveto
          4 -27 -30 3 -31 hhcurveto
          -200 -15 -120 -37 -83 56 -88 158 155 55 87 81 hvcurveto
          135 vlineto
          hintmask 01001011
          137 -78 75 -142 vhcurveto
          100 -333 rmoveto
          -46 -24 -30 -67 -63 -31 28 52 41 32 24 81 27 24 -3 -3 21 vhcurveto
          -86 360 rmoveto
          hintmask 10100111
          -87 callsubr
        </CharString>
        <CharString name="acute">
          -390 564 117 hstem
          59 564 -102 callsubr
        </CharString>
        <CharString name="adieresis">
          -80 callgsubr
          57 95 hstemhm
          56 119 -35 -9 callsubr
          -42 121 hintmask 11111001
          -107 callgsubr
          hintmask 11110110
          -119 422 -91 callsubr
        </CharString>
        <CharString name="adotbelow">
          -106 -34 callgsubr
          106 145 77 87 100 hstem
          56 119 49 101 34 -33 callsubr
          -107 callgsubr
          -35 -287 -93 callgsubr
        </CharString>
        <CharString name="ae">
          227 -8 103 109 83 -44 77 87 101 -1 -20 hstemhm
          53 119 184 122 hintmask 11010110
          -19 callgsubr
          hintmask 11001110
          42 -30 -59 28 -76 hhcurveto
          -75 callsubr
          hvcurveto
          -97 vlineto
          hintmask 10110110
          15 37 49 10 60 hhcurveto
          78 28 -40 -54 hvcurveto
          4 -27 -30 3 -31 hhcurveto
          -200 -15 -120 -37 -83 56 -88 158 77 51 27 44 32 hvcurveto
          -35 27 60 -36 73 -12 callsubr
          -20 -42 -57 -19 -71 hhcurveto
          hintmask 11010110
          -39 callgsubr
          hintmask 10110110
          41 32 24 81 27 24 -3 -3 21 vhcurveto
          hintmask 11010110
          121 50 -31 callsubr
          endchar
        </CharString>
        <CharString name="aeacute">
          243 -8 103 109 83 -44 77 87 101 173 -20 hstemhm
          53 119 184 122 hintmask 10111110
          -19 callgsubr
          42 -30 -59 28 -76 hhcurveto
          -75 callsubr
          hvcurveto
          -97 vlineto
          15 37 49 10 60 hhcurveto
          78 28 -40 -54 hvcurveto
          4 -27 -30 3 -31 hhcurveto
          -200 -15 -120 -37 -83 56 -88 158 77 51 27 44 32 hvcurveto
          -35 27 60 -36 73 -12 callsubr
          -20 -42 -57 -19 -71 hhcurveto
          hintmask 11011110
          -39 callgsubr
          hintmask 10111110
          41 32 24 81 27 24 -3 -3 21 vhcurveto
          hintmask 11011110
          121 50 -31 callsubr
          -301 277 -102 callsubr
        </CharString>
        <CharString name="agrave">
          -80 callgsubr
          57 117 hstem
          -25 callgsubr
          vstem
          -107 callgsubr
          -109 444 -94 callsubr
        </CharString>
        <CharString name="ahookabove">
          -80 callgsubr
          156 50 hstem
          56 119 96 64 24 -33 callsubr
          -107 callgsubr
          -89 402 -104 callgsubr
        </CharString>
        <CharString name="amacron">
          -80 callgsubr
          69 71 hstem
          -25 callgsubr
          vstem
          -107 callgsubr
          31 410 -73 callsubr
        </CharString>
        <CharString name="ampersand">
          -8 -8 91 -62 -21 583 88 hstemhm
          55 95 -31 95 129 94 hintmask 10101100
          506 142 rmoveto
          29 50 17 61 7 45 rrcurveto
          -98 hlineto
          0 -7 -41 -14 -35 vhcurveto
          -40 49 -31 36 -41 49 rrcurveto
          76 51 33 38 70 vvcurveto
          87 -68 69 -91 -108 -51 -81 -82 -54 41 -47 20 -21 vhcurveto
          hintmask 10110100
          -115 -68 -10 -71 -57 vvcurveto
          -77 58 -121 155 77 56 28 43 45 vhcurveto
          hintmask 01101100
          51 -63 rlineto
          128 hlineto
          -346 583 rmoveto
          36 28 -27 -35 -28 -13 -23 -67 -39 hvcurveto
          -22 27 -27 28 31 vvcurveto
          37 29 29 36 vhcurveto
          hintmask 10110100
          -9 -500 rmoveto
          -98 -22 75 29 29 -1 46 92 49 hvcurveto
          49 -60 48 -57 50 -59 rrcurveto
          -29 -29 -40 -23 -49 hhcurveto
          endchar
        </CharString>
        <CharString name="aogonek">
          -106 -175 58 110 105 145 77 87 100 hstem
          -25 callgsubr
          vstem
          299 -59 callsubr
          34 47 37 41 23 hvcurveto
          100 22 38 71 67 vvcurveto
          135 vlineto
          137 -78 75 -142 -75 callsubr
          vhcurveto
          -97 vlineto
          15 37 49 10 60 hhcurveto
          78 28 -40 -54 hvcurveto
          4 -27 -30 3 -31 hhcurveto
          -200 -15 -120 -37 -78 49 -83 138 -9 hvcurveto
          -24 -15 -51 -39 -47 -75 callgsubr
          10 267 rmoveto
          -46 -24 -30 -67 -63 -31 28 52 41 32 24 81 27 24 -3 -3 21 vhcurveto
          endchar
        </CharString>
        <CharString name="approxequal">
          -24 518 260 rmoveto
          -131 -147 -158 262 -132 -138 rrcurveto
          -86 vlineto
          131 147 158 -263 132 138 rrcurveto
          245 vmoveto
          -131 -147 -158 263 -132 -138 rrcurveto
          -87 vlineto
          131 147 158 -262 132 138 rrcurveto
          endchar
        </CharString>
        <CharString name="aring">
          -80 callgsubr
          28 43 86 43 hstemhm
          56 119 15 53 68 53 -5 121 hintmask 1111111010000000
          -107 callgsubr
          -83 470 -42 callsubr
          hvcurveto
          hintmask 1111111100000000
          -83 callsubr
        </CharString>
        <CharString name="asciicircum">
          -88 494 -21 217 -20 hstem
          293 690 rmoveto
          -55 hlineto
          -109 -217 rlineto
          83 hlineto
          54 127 54 -127 rlineto
          83 hlineto
          endchar
        </CharString>
        <CharString name="asciitilde">
          -125 425 242 rmoveto
          82 vlineto
          -101 -119 -124 219 -102 -119 rrcurveto
          -82 vlineto
          102 119 124 -219 101 119 rrcurveto
          endchar
        </CharString>
        <CharString name="asterisk">
          -235 481 -21 242 -20 hstem
          334 609 rmoveto
          -38 68 -60 -51 12 76 rlineto
          -78 hlineto
          12 -76 -60 51 -38 -68 81 -28 -81 -28 38 -68 60 51 -12 -76 rlineto
          78 hlineto
          -12 76 60 -51 38 68 -81 28 81 28 rlineto
          endchar
        </CharString>
        <CharString name="at">
          265 -152 57 117 61 -61 90 111 72 72 84 94 59 hstemhm
          83 59 141 89 180 85 -73 89 137 57 hintmask 1101111110100000
          511 604 rmoveto
          -201 -227 -174 -249 -245 201 -88 128 88 72 16 25 56 hvcurveto
          10 64 rlineto
          -32 -66 -74 -16 -87 hhcurveto
          -62 -207 49 224 200 177 167 189 129 153 -98 -172 -135 -69 -57 -39 -44 -1 45 20 hvcurveto
          hintmask 1101111101100000
          55 16 49 51 vvcurveto
          97 -57 51 -108 -44 -51 -13 -12 -37 vhcurveto
          -4 -28 -5 -24 -4 -28 rrcurveto
          16 42 50 5 44 hhcurveto
          75 10 -32 -42 hvcurveto
          1 -17 -21 1 -18 hhcurveto
          -194 -31 -87 -59 -79 62 -48 100 76 48 35 39 16 hvcurveto
          -16 2 24 -58 61 hhcurveto
          122 53 132 121 239 -206 90 -130 hvcurveto
          hintmask 1011111110100000
          -66 -492 rmoveto
          -35 -38 6 33 47 46 25 90 15 16 0 -1 13 hvcurveto
          -78 -5 -22 -32 -80 hhcurveto
          endchar
        </CharString>
        <CharString name="atilde">
          -80 callgsubr
          hstem
          -25 callgsubr
          vstem
          -107 callgsubr
          70 345 -104 callsubr
        </CharString>
        <CharString name="b">
          -71 -8 103 317 95 183 2 callgsubr
          -46 callgsubr
          -28 -27 -3 -5 -27 hvcurveto
          191 -120 -530 vlineto
          -81 55 -87 155 67 157 26 237 163 -83 89 -149 vhcurveto
          8 -412 rmoveto
          -53 -37 12 42 hvcurveto
          255 9 callsubr
          -118 -114 -26 -52 -77 hvcurveto
          endchar
        </CharString>
        <CharString name="backslash">
          -243 -77 -21 854 -20 hstem
          63 756 rmoveto
          -100 hlineto
          368 -854 rlineto
          99 hlineto
          endchar
        </CharString>
        <CharString name="bar">
          -182 -78 -21 766 -20 hstem
          185 107 vstem
          292 -99 rmoveto
          766 -107 -766 vlineto
          endchar
        </CharString>
        <CharString name="braceleft">
          -265 -110 90 629 90 hstemhm
          91 156 -106 106 -106 178 hintmask 11010000
          247 402 rmoveto
          141 vlineto
          29 1 37 59 vhcurveto
          hintmask 11001000
          4 4 0 4 hhcurveto
          90 vlineto
          -6 -7 0 -7 hhcurveto
          -110 -48 -69 -90 hvcurveto
          -143 vlineto
          hintmask 11100000
          -47 -50 -8 0 vhcurveto
          -95 vlineto
          hintmask 11010000
          0 50 -9 -46 vvcurveto
          -143 vlineto
          -90 48 -69 110 vhcurveto
          hintmask 11001000
          7 7 0 6 hhcurveto
          90 vlineto
          -4 -4 0 -4 hhcurveto
          hintmask 11100000
          -59 -1 37 29 hvcurveto
          141 vlineto
          62 -48 34 -35 11 vhcurveto
          35 12 48 34 62 vvcurveto
          endchar
        </CharString>
        <CharString name="braceright">
          -265 -110 90 629 90 hstemhm
          76 178 -107 107 -107 157 hintmask 11010000
          147 187 rmoveto
          -141 vlineto
          -29 -1 -37 -59 vhcurveto
          hintmask 11100000
          -4 -3 0 -4 hhcurveto
          -90 vlineto
          6 6 0 7 hhcurveto
          111 48 69 90 hvcurveto
          143 vlineto
          hintmask 11001000
          46 50 9 0 vhcurveto
          95 vlineto
          hintmask 11100000
          0 -50 8 47 vvcurveto
          143 vlineto
          90 -48 69 -111 vhcurveto
          -7 -6 0 -6 hhcurveto
          -90 vlineto
          4 3 0 4 hhcurveto
          hintmask 11010000
          59 1 -37 -29 hvcurveto
          -141 vlineto
          -62 49 -34 34 -12 vhcurveto
          -34 -11 -49 -34 -62 vvcurveto
          endchar
        </CharString>
        <CharString name="bracketleft">
          -253 -116 93 626 93 hstemhm
          119 92 -92 193 hintmask 11100000
          211 603 rmoveto
          hintmask 11010000
          101 93 -193 -812 193 93 hlineto
          hintmask 11100000
          -101 hlineto
          endchar
        </CharString>
        <CharString name="bracketright">
          -253 -116 93 626 93 hstemhm
          84 193 -92 92 hintmask 11010000
          185 -23 rmoveto
          hintmask 11100000
          -101 -93 193 812 -193 -93 hlineto
          hintmask 11010000
          101 hlineto
          endchar
        </CharString>
        <CharString name="breve">
          -210 545 -30 callsubr
          111 222 hintmask 01100000
          263 652 rmoveto
          hintmask 10100000
          -80 callsubr
          hintmask 01100000
          -99 callgsubr
          -70 hlineto
          endchar
        </CharString>
        <CharString name="bullet">
          -213 211 -21 266 -20 hstem
          350 323 rmoveto
          74 -59 59 -73 -74 -60 -59 -74 -74 60 -59 74 73 59 59 74 vhcurveto
          endchar
        </CharString>
        <CharString name="c">
          -13 callsubr
          hstem
          58 -77 callgsubr
          -93 callsubr
          endchar
        </CharString>
        <CharString name="cacute">
          -13 callsubr
          57 117 hstem
          58 -77 callgsubr
          -93 callsubr
          72 315 -102 callsubr
        </CharString>
        <CharString name="caron">
          -221 585 -21 0 callsubr
          hstem
          216 630 -99 callsubr
        </CharString>
        <CharString name="ccaron">
          -13 callsubr
          179 -20 hstem
          58 -77 callgsubr
          -93 callsubr
          100 381 -99 callsubr
        </CharString>
        <CharString name="ccedilla">
          -176 -125 220 308 104 hstem
          58 -77 callgsubr
          178 249 rmoveto
          129 52 25 84 46 41 -9 -15 37 vhcurveto
          100 vlineto
          17 -43 -48 11 -29 callsubr
          -92 -166 -149 67 -89 124 -16 hvcurveto
          -86 -120 rlineto
          104 hlineto
          60 119 40 3 37 9 34 14 rlinecurve
          100 vlineto
          -15 -37 -41 -10 -46 hhcurveto
          -84 -52 26 128 hvcurveto
          endchar
        </CharString>
        <CharString name="ccircumflex">
          -13 callsubr
          -2 callgsubr
          58 120 hintmask 11011000
          -93 callsubr
          97 371 rmoveto
          hintmask 10111000
          -86 callsubr
        </CharString>
        <CharString name="cdotaccent">
          -13 callsubr
          57 95 hstem
          58 120 48 101 vstem
          -93 callsubr
          149 410 -93 callgsubr
        </CharString>
        <CharString name="cedilla">
          -373 -125 120 hstem
          145 -5 rmoveto
          -87 -120 rlineto
          103 hlineto
          62 120 rlineto
          endchar
        </CharString>
        <CharString name="cent">
          -171 -28 callgsubr
          hstemhm
          57 120 100 58 -58 160 hintmask 11101000
          437 463 rmoveto
          100 vlineto
          hintmask 11110000
          -31 12 -34 10 -37 4 rrcurveto
          78 -58 -76 vlineto
          -142 -7 -78 -91 -160 vvcurveto
          -160 78 -90 142 -7 vhcurveto
          -76 58 78 vlineto
          hintmask 11101000
          37 4 34 10 31 12 rrcurveto
          100 vlineto
          hintmask 11110000
          -31 -13 -33 -9 -38 -2 rrcurveto
          306 vlineto
          hintmask 11101000
          38 -2 33 -8 31 -13 rrcurveto
          -260 -130 rmoveto
          109 38 35 62 8 vhcurveto
          -304 vlineto
          -62 8 -38 36 108 vvcurveto
          endchar
        </CharString>
        <CharString name="circumflex">
          -221 585 -21 0 callsubr
          hstem
          213 620 rmoveto
          -86 callsubr
        </CharString>
        <CharString name="colon">
          -251 38 109 206 109 hstem
          143 115 vstem
          258 462 rmoveto
          4 callgsubr
          -206 vmoveto
          4 callgsubr
          endchar
        </CharString>
        <CharString name="comma">
          -317 -112 196 hstem
          148 -27 callsubr
          endchar
        </CharString>
        <CharString name="commaaccent">
          -376 -172 -21 144 -20 hstemhm
          83 -39 callsubr
          hintmask 11010000
          121 -49 rmoveto
          hintmask 11100000
          -97 callgsubr
        </CharString>
        <CharString name="copyright">
          130 -8 51 91 63 273 63 91 51 hstem
          48 51 116 70 395 51 vstem
          389 -88 callgsubr
          13 154 rmoveto
          -61 -56 16 120 121 56 16 61 42 37 -11 -15 33 hvcurveto
          66 vlineto
          14 -35 -39 9 -44 hhcurveto
          -83 -98 -34 -166 -165 98 -34 83 44 39 9 14 35 hvcurveto
          66 vlineto
          -16 -33 -37 -10 -42 hhcurveto
          endchar
        </CharString>
        <CharString name="d">
          -78 -8 103 317 95 183 -20 hstem
          63 3 callsubr
          -71 callgsubr
          endchar
        </CharString>
        <CharString name="dagger">
          -174 114 -21 366 77 125 -20 hstem
          200 77 vstem
          391 536 rmoveto
          -114 125 -77 -125 -115 -77 115 -366 77 366 114 hlineto
          endchar
        </CharString>
        <CharString name="daggerdbl">
          -154 21 -21 132 89 173 89 134 -20 hstem
          201 89 vstem
          290 394 rmoveto
          133 89 -133 134 -89 -134 -133 -89 133 -173 -43 callgsubr
          endchar
        </CharString>
        <CharString name="dcaron">
          23 -8 103 317 95 183 -20 hstemhm
          63 120 194 120 32 -39 callsubr
          hintmask 11111010
          -71 callgsubr
          384 429 rmoveto
          hintmask 11111100
          -97 callgsubr
        </CharString>
        <CharString name="dcroat">
          -34 -8 103 317 95 43 82 58 -20 hstem
          60 3 callsubr
          575 632 rmoveto
          -81 58 -120 -58 -128 -82 128 -51 hlineto
          5 -27 -28 3 -28 hhcurveto
          -149 -82 -89 -163 6 callgsubr
          hvcurveto
          390 81 vlineto
          -201 -401 rmoveto
          -42 -37 -12 -54 -77 -26 52 114 118 46 33 69 31 26 -3 -5 22 vhcurveto
          endchar
        </CharString>
        <CharString name="degree">
          -261 448 49 123 49 hstem
          82 53 111 54 vstem
          191 669 rmoveto
          -70 -39 -39 -72 -71 39 -39 70 70 39 39 71 72 -39 39 -70 hvcurveto
          -172 vmoveto
          -39 -17 18 44 43 17 18 39 39 16 -18 -43 -44 -16 -18 -39 hvcurveto
          endchar
        </CharString>
        <CharString name="dieresis">
          -230 564 95 hstem
          79 -9 callsubr
          vstem
          180 659 -91 callsubr
        </CharString>
        <CharString name="divide">
          -20 63 94 61 80 62 94 hstem
          264 101 vstem
          103 298 rmoveto
          -80 423 80 vlineto
          -262 -235 rmoveto
          101 94 -101 hlineto
          203 vmoveto
          101 94 -101 hlineto
          endchar
        </CharString>
        <CharString name="dollar">
          -71 -87 -21 102 114 456 111 101 -20 hstemhm
          73 120 76 58 -58 221 -78 120 hintmask 11111101
          532 177 rmoveto
          155 -110 38 -95 28 vhcurveto
          166 vlineto
          hintmask 11111010
          68 -1 54 -24 41 -26 rrcurveto
          117 vlineto
          hintmask 11111101
          -48 25 -54 18 -61 2 rrcurveto
          101 -58 -102 vlineto
          -108 -12 -88 -60 -120 vvcurveto
          -129 103 -32 93 -28 vhcurveto
          -185 vlineto
          -80 1 -61 29 -46 34 rrcurveto
          -122 vlineto
          47 -29 61 -22 79 -5 rrcurveto
          -102 58 102 vlineto
          113 9 92 71 103 vvcurveto
          -339 308 rmoveto
          42 34 22 42 9 vhcurveto
          -143 vlineto
          -45 15 -31 17 38 vvcurveto
          134 -373 rmoveto
          163 vlineto
          49 -18 36 -24 -48 vvcurveto
          -46 -38 -20 -47 -7 vhcurveto
          endchar
        </CharString>
        <CharString name="dong">
          -229 109 59 31 68 209 62 29 54 38 -20 hstem
          56 79 128 79 vstem
          56 109 rmoveto
          299 59 -299 hlineto
          286 453 rmoveto
          38 -79 -38 -84 -54 84 -34 vlineto
          3 -18 -18 2 -19 hhcurveto
          -98 -54 -58 -108 -156 103 -17 44 102 37 57 54 hvcurveto
          257 54 54 vlineto
          -133 -319 rmoveto
          -27 -24 -8 -36 -51 -17 34 75 78 31 22 45 20 18 -2 -4 14 vhcurveto
          endchar
        </CharString>
        <CharString name="dotaccent">
          -305 564 95 hstem
          125 101 vstem
          226 659 -93 callgsubr
        </CharString>
        <CharString name="dotbelowcmb">
          -648 -145 95 hstem
          -268 101 vstem
          -167 -50 -93 callgsubr
        </CharString>
        <CharString name="dotlessi">
          -1 callsubr
          499 -20 hstem
          96 -77 callgsubr
          216 499 rmoveto
          -120 -499 -51 callsubr
          endchar
        </CharString>
        <CharString name="dotlessj">
          -358 -193 93 599 -20 8 callgsubr
          96 499 rmoveto
          -514 vlineto
          hintmask 11100000
          -44 2 -36 -95 -52 callsubr
          506 vlineto
          endchar
        </CharString>
        <CharString name="e">
          -89 -8 6 callsubr
          vstem
          -107 callsubr
          endchar
        </CharString>
        <CharString name="eacute">
          -78 callsubr
          56 117 hstem
          -23 callgsubr
          vstem
          -107 callsubr
          -44 154 -102 callsubr
        </CharString>
        <CharString name="ebreve">
          -78 callsubr
          37 -30 callsubr
          -23 callgsubr
          -12 222 hintmask 11101100
          -107 callsubr
          40 242 rmoveto
          hintmask 11110100
          -80 callsubr
          hintmask 11101010
          -99 callgsubr
          endchar
        </CharString>
        <CharString name="ecaron">
          -78 callsubr
          178 -20 hstem
          -23 callgsubr
          vstem
          -107 callsubr
          220 vmoveto
          -36 56 rlineto
          -80 hlineto
          92 -122 rlineto
          48 hlineto
          91 122 rlineto
          -79 hlineto
          endchar
        </CharString>
        <CharString name="ecircumflex">
          -89 95 -6 callsubr
          56 -41 callgsubr
          -23 callgsubr
          hintmask 10101100
          313 95 rmoveto
          -102 callgsubr
          vhcurveto
          hintmask 11011100
          -212 133 -40 99 80 62 20 25 46 vhcurveto
          -81 callsubr
          -27 315 rmoveto
          64 31 -60 -63 6 hvcurveto
          -201 hlineto
          89 7 34 34 59 hhcurveto
          -2 210 rmoveto
          -86 callsubr
        </CharString>
        <CharString name="ecircumflexacute">
          -78 callsubr
          122 117 -78 -20 hstemhm
          -23 callgsubr
          hintmask 11101100
          -107 callsubr
          2 193 rmoveto
          -105 callsubr
          hintmask 11110100
          107 83 -102 callsubr
        </CharString>
        <CharString name="ecircumflexdotbelow">
          -93 -145 95 145 -6 callsubr
          39 -41 callgsubr
          -23 callgsubr
          54 101 hintmask 11010111
          313 95 rmoveto
          -102 callgsubr
          vhcurveto
          hintmask 11101111
          -212 133 -40 99 80 62 20 25 46 vhcurveto
          -81 callsubr
          -27 315 rmoveto
          64 31 -60 -63 6 hvcurveto
          -201 hlineto
          89 7 34 34 59 hhcurveto
          4 193 rmoveto
          -105 callsubr
          87 -597 -93 callgsubr
        </CharString>
        <CharString name="ecircumflexgrave">
          -78 callsubr
          122 117 -78 -20 hstemhm
          -23 callgsubr
          hintmask 11101100
          -107 callsubr
          2 193 rmoveto
          -105 callsubr
          hintmask 11110100
          -96 200 -94 callsubr
        </CharString>
        <CharString name="ecircumflexhookabove">
          -78 callsubr
          39 232 -110 -20 80 50 hstemhm
          -23 callgsubr
          207 64 hintmask 11110011
          -107 callsubr
          1 193 rmoveto
          36 -56 rlineto
          80 hlineto
          hintmask 11101111
          -92 122 rlineto
          -48 hlineto
          hintmask 11110011
          -91 -122 rlineto
          79 hlineto
          142 158 rmoveto
          -12 -13 -6 -20 -2 vhcurveto
          -55 48 23 vlineto
          0 49 7 48 vvcurveto
          48 -41 23 -50 -12 -19 -1 -2 -10 vhcurveto
          -49 vlineto
          hintmask 11101111
          1 9 10 1 12 hhcurveto
          19 18 -5 -19 hvcurveto
          endchar
        </CharString>
        <CharString name="ecircumflextilde">
          -89 95 -6 callsubr
          33 hstemhm
          -23 callgsubr
          hintmask 10101000
          313 95 rmoveto
          -102 callgsubr
          vhcurveto
          hintmask 11011000
          -212 133 -40 99 80 62 20 25 46 vhcurveto
          -81 callsubr
          -27 315 rmoveto
          64 31 -60 -63 6 hvcurveto
          -201 hlineto
          89 7 34 34 59 hhcurveto
          -4 187 rmoveto
          -87 callsubr
        </CharString>
        <CharString name="edieresis">
          -78 callsubr
          56 95 hstemhm
          -23 callgsubr
          -35 -9 callsubr
          hintmask 11111010
          -107 callsubr
          hintmask 11110110
          -34 249 -91 callsubr
        </CharString>
        <CharString name="edotaccent">
          -78 callsubr
          56 95 hstem
          -23 callgsubr
          49 101 vstem
          -107 callsubr
          50 249 -93 callgsubr
        </CharString>
        <CharString name="edotbelow">
          -89 -34 callgsubr
          6 callsubr
          56 101 vstem
          -107 callsubr
          57 -460 -93 callgsubr
        </CharString>
        <CharString name="egrave">
          -78 callsubr
          56 117 hstem
          -23 callgsubr
          vstem
          -107 callsubr
          -25 271 -94 callsubr
        </CharString>
        <CharString name="ehookabove">
          -78 callsubr
          155 50 hstem
          -23 callgsubr
          110 64 vstem
          -107 callsubr
          10 229 -104 callgsubr
        </CharString>
        <CharString name="eight">
          -44 -8 94 215 103 174 98 hstemhm
          63 120 -97 120 194 120 -97 97 hintmask 11101010
          423 358 rmoveto
          0 97 25 113 vvcurveto
          113 -83 67 -134 -134 -83 -67 -113 -113 98 -25 0 vhcurveto
          hintmask 11110010
          0 -121 -31 -128 vvcurveto
          -128 86 -79 154 154 86 79 128 128 -120 31 0 vhcurveto
          -120 220 rmoveto
          hintmask 11101100
          67 30 -41 -44 -70 -54 -19 -43 -43 -54 19 70 44 30 41 67 hvcurveto
          -492 vmoveto
          hintmask 11110010
          -82 -38 47 70 48 37 50 83 83 37 -50 -48 -70 -37 -47 -83 hvcurveto
          endchar
        </CharString>
        <CharString name="eight.denominator">
          -305 -4 -64 callsubr
          193 -96 callsubr
        </CharString>
        <CharString name="eight.inferior">
          -305 -155 -64 callsubr
          42 -96 callsubr
        </CharString>
        <CharString name="eight.numerator">
          -305 310 -64 callsubr
          507 -96 callsubr
        </CharString>
        <CharString name="eight.superior">
          -305 458 -64 callsubr
          655 -96 callsubr
        </CharString>
        <CharString name="ellipsis">
          195 0 111 hstem
          107 117 139 117 138 117 vstem
          224 111 -36 callsubr
          511 111 -36 callsubr
          -255 111 -36 callsubr
          endchar
        </CharString>
        <CharString name="emacron">
          -78 callsubr
          68 71 hstem
          -23 callgsubr
          vstem
          -107 callsubr
          117 237 -73 callsubr
        </CharString>
        <CharString name="emdash">
          243 244 94 hstem
          79 338 rmoveto
          -94 733 94 vlineto
          endchar
        </CharString>
        <CharString name="endash">
          -88 244 94 hstem
          69 338 rmoveto
          -94 420 94 vlineto
          endchar
        </CharString>
        <CharString name="eng">
          -26 -193 93 121 -15 callsubr
          hstemhm
          82 120 117 213 -119 119 hintmask 11110100
          413 310 rmoveto
          -325 vlineto
          hintmask 11111000
          -44 1 -36 -95 -52 callsubr
          307 vlineto
          130 -82 77 -139 -127 -98 -53 -2 -4 vhcurveto
          -452 0 callgsubr
          vlineto
          5 27 32 4 34 hhcurveto
          hintmask 11110100
          109 9 -47 -44 hvcurveto
          endchar
        </CharString>
        <CharString name="eogonek">
          -89 -175 58 109 6 callsubr
          vstem
          408 -93 rmoveto
          -37 callgsubr
          1 24 2 26 59 73 62 29 hvcurveto
          -81 callsubr
          -102 callgsubr
          -212 133 -40 99 22 21 1 3 20 vhcurveto
          -19 -11 -62 -41 -52 -75 callgsubr
          -173 503 rmoveto
          64 31 -60 -63 6 hvcurveto
          -201 hlineto
          89 7 34 34 59 hhcurveto
          endchar
        </CharString>
        <CharString name="equal">
          -10 170 86 85 86 hstem
          127 427 rmoveto
          -86 385 86 vlineto
          -385 -171 rmoveto
          -86 385 86 vlineto
          endchar
        </CharString>
        <CharString name="eth">
          -46 -17 callgsubr
          18 -20 hstemhm
          57 121 231 121 hintmask 11011100
          433 597 rmoveto
          60 41 -38 56 -79 -55 rlineto
          hintmask 11101100
          31 -56 -59 6 -39 hhcurveto
          -24 -27 -4 -6 -27 hvcurveto
          -107 vlineto
          4 25 26 1 20 hhcurveto
          12 16 -1 -4 16 hvcurveto
          -51 -36 38 -55 88 60 32 -23 29 -36 10 -57 rlinecurve
          -32 callsubr
          147 -42 89 -55 54 hvcurveto
          -140 -499 -31 callgsubr
        </CharString>
        <CharString name="etilde">
          -89 -8 6 callsubr
          vstem
          -107 callsubr
          158 172 -104 callsubr
        </CharString>
        <CharString name="exclam">
          -245 0 111 556 -20 hstem
          149 115 vstem
          148 111 rmoveto
          -111 117 111 vlineto
          -127 556 rmoveto
          22 -475 rlineto
          93 hlineto
          22 475 rlineto
          endchar
        </CharString>
        <CharString name="exclamdown">
          -245 -147 -21 556 111 hstem
          149 115 vstem
          265 388 rmoveto
          111 -117 -111 vlineto
          127 -556 rmoveto
          -22 475 rlineto
          -93 hlineto
          -22 -475 rlineto
          endchar
        </CharString>
        <CharString name="f">
          -291 21 -21 396 103 110 97 hstemhm
          125 -1 callgsubr
          235 hintmask 11101000
          -50 callgsubr
          -5 callgsubr
          -103 85 -396 hlineto
          hintmask 11110000
          120 396 hlineto
          hintmask 11101000
          115 103 hlineto
          hintmask 11110000
          -115 hlineto
          91 29 19 59 vhcurveto
          endchar
        </CharString>
        <CharString name="fi">
          3 21 -21 396 103 0 68 -68 110 -42 110 -68 97 hstemhm
          125 120 221 120 hintmask 10100111
          -50 callgsubr
          hintmask 10010011
          -5 callgsubr
          hlineto
          hintmask 11001011
          -7 callgsubr
          hintmask 10100111
          91 29 19 59 vhcurveto
          253 -609 rmoveto
          -120 hlineto
          hintmask 10010011
          499 120 vlineto
          hintmask 11001011
          1 68 rmoveto
          -123 110 123 hlineto
          endchar
        </CharString>
        <CharString name="five">
          -40 -9 109 222 113 113 119 hstem
          406 119 vstem
          119 -72 callgsubr
          -36 -321 67 -60 rlineto
          0 56 38 91 -2 vhcurveto
          50 -1 55 -19 4 -89 rrcurveto
          -45 2 -12 -68 -101 hhcurveto
          -83 -75 35 24 -38 hvcurveto
          -121 vlineto
          -25 49 67 -22 87 hhcurveto
          102 121 38 184 183 -124 39 -102 -35 -29 -4 -5 -26 hvcurveto
          5 53 3 23 4 46 rrcurveto
          265 119 hlineto
          endchar
        </CharString>
        <CharString name="five.denominator">
          -322 -3 -60 callgsubr
          236 -91 callgsubr
        </CharString>
        <CharString name="five.inferior">
          -322 -154 -60 callgsubr
          85 -91 callgsubr
        </CharString>
        <CharString name="five.numerator">
          -322 311 -60 callgsubr
          550 -91 callgsubr
        </CharString>
        <CharString name="five.superior">
          -322 459 -60 callgsubr
          698 -91 callgsubr
        </CharString>
        <CharString name="fiveeighths">
          199 -13 callgsubr
          93 53 125 61 60 64 11 -20 hstemhm
          89 229 -64 64 218 64 -52 65 104 65 -52 52 hintmask 0111101100101000
          618 685 rmoveto
          -437 -707 rlineto
          80 hlineto
          437 707 rlineto
          32 -492 -84 callsubr
          hintmask 1011110101001000
          0 -65 -17 -69 vvcurveto
          -69 46 -42 83 83 46 42 69 69 -64 17 0 vhcurveto
          -65 118 rmoveto
          hintmask 1011110100110000
          -85 callgsubr
          hintmask 1011110011001000
          -82 callsubr
          -469 504 rmoveto
          -18 -16 -3 -2 -14 hvcurveto
          3 28 1 13 3 24 rrcurveto
          142 64 -197 hlineto
          -20 -172 36 -33 rlineto
          0 30 21 49 -1 vhcurveto
          27 -1 30 -10 2 -48 rrcurveto
          -24 1 -6 -37 -55 hhcurveto
          hintmask 1011110101010000
          -44 -41 19 13 -20 hvcurveto
          -65 vlineto
          -14 26 36 -11 47 hhcurveto
          55 65 20 99 99 -67 21 -55 hvcurveto
          endchar
        </CharString>
        <CharString name="fl">
          3 21 -21 396 103 0 110 0 97 hstemhm
          125 120 223 120 hintmask 11011100
          -50 callgsubr
          hintmask 10101100
          -5 callgsubr
          hlineto
          hintmask 11011100
          -7 callgsubr
          91 29 19 59 vhcurveto
          255 -609 rmoveto
          -120 689 -51 callsubr
          endchar
        </CharString>
        <CharString name="florin">
          -297 -122 82 452 87 110 10 callgsubr
          hintmask 11101000
          36 412 rmoveto
          88 -348 hlineto
          -104 -45 0 -47 vhcurveto
          hintmask 11110000
          -23 callsubr
          348 vlineto
          hintmask 11100100
          114 87 hlineto
          hintmask 11110000
          -114 6 hlineto
          104 45 0 47 vhcurveto
          hintmask 11100100
          -8 callgsubr
          -111 -55 -63 -123 hvcurveto
          -6 -88 vlineto
          endchar
        </CharString>
        <CharString name="four">
          -45 21 -21 188 107 372 -20 hstem
          336 -77 callgsubr
          456 295 rmoveto
          372 -114 vlineto
          -304 -380 rlineto
          -99 298 -188 120 188 87 107 vlineto
          -365 hmoveto
          158 205 rlineto
          -205 vlineto
          endchar
        </CharString>
        <CharString name="four.denominator">
          -316 22 -49 callgsubr
          360 -84 callgsubr
          endchar
        </CharString>
        <CharString name="four.inferior">
          -316 -129 -49 callgsubr
          209 -84 callgsubr
          endchar
        </CharString>
        <CharString name="four.numerator">
          -316 336 -49 callgsubr
          674 -84 callgsubr
          endchar
        </CharString>
        <CharString name="four.superior">
          -316 484 -49 callgsubr
          822 -84 callgsubr
          endchar
        </CharString>
        <CharString name="fraction">
          -263 -1 -21 707 -20 hstem
          366 685 rmoveto
          -437 -707 rlineto
          80 hlineto
          437 707 rlineto
          endchar
        </CharString>
        <CharString name="g">
          -29 callgsubr
          hstem
          60 120 181 -77 callgsubr
          -95 callgsubr
          -232 vlineto
          endchar
        </CharString>
        <CharString name="gbreve">
          -29 callgsubr
          38 -30 callsubr
          60 120 -9 222 -32 120 hintmask 11101101
          -95 callgsubr
          -38 308 rmoveto
          hintmask 11110101
          -80 callsubr
          hintmask 11101010
          -99 callgsubr
          endchar
        </CharString>
        <CharString name="gcaron">
          -29 callgsubr
          179 -20 hstem
          60 120 181 -77 callgsubr
          -95 callgsubr
          -81 286 -99 callsubr
        </CharString>
        <CharString name="gcircumflex">
          -100 -195 107 0 95 0 98 295 107 -2 callgsubr
          60 120 181 120 hintmask 01010111
          277 -46 callgsubr
          -65 -152 -25 -231 -157 80 -87 145 26 25 3 5 25 hvcurveto
          -27 vlineto
          -32 0 -44 -119 -56 -44 10 10 -30 vhcurveto
          -107 vlineto
          hintmask 10110111
          -11 36 48 -9 60 hhcurveto
          196 29 115 68 hvcurveto
          355 vlineto
          79 -53 85 -151 vhcurveto
          84 -395 rmoveto
          -4 -20 -24 -3 -28 hhcurveto
          -67 -42 24 120 113 37 38 60 45 39 -11 -45 hvcurveto
          -81 276 rmoveto
          hintmask 10101111
          -86 callsubr
        </CharString>
        <CharString name="gcommaaccent">
          -100 -195 107 0 95 0 98 295 107 0 57 144 -20 hstemhm
          60 120 64 70 -70 108 9 120 hintmask 1010111101000000
          314 564 rmoveto
          hintmask 1010111011000000
          -1 47 9 27 30 5 rrcurveto
          65 vlineto
          -66 -10 -44 -54 2 -80 rrcurveto
          hintmask 0100111101000000
          33 -57 rmoveto
          -65 -152 -25 -231 -157 80 -87 145 26 25 3 5 25 hvcurveto
          -27 vlineto
          -32 0 -44 -119 -56 -44 10 10 -30 vhcurveto
          -107 vlineto
          hintmask 1011011101000000
          -11 36 48 -9 60 hhcurveto
          196 29 115 68 hvcurveto
          355 vlineto
          79 -53 85 -151 vhcurveto
          84 -395 rmoveto
          -4 -20 -24 -3 -28 hhcurveto
          -67 -42 24 120 113 37 38 60 45 39 -11 -45 hvcurveto
          endchar
        </CharString>
        <CharString name="gdotaccent">
          -29 callgsubr
          57 95 hstem
          60 120 50 101 30 -77 callgsubr
          -95 callgsubr
          -30 315 -93 callgsubr
        </CharString>
        <CharString name="germandbls">
          -35 0 97 205 88 200 85 hstemhm
          88 111 83 250 -107 107 -81 111 hintmask 11110100
          532 490 rmoveto
          89 -72 96 -155 -99 -118 -44 -213 vhcurveto
          -418 111 415 vlineto
          153 61 22 58 83 24 -46 -58 vhcurveto
          hintmask 11111000
          -84 -93 -12 -50 vhcurveto
          -88 vlineto
          hintmask 11110010
          60 -2 109 -14 -84 vvcurveto
          hintmask 11111000
          -89 -94 -17 -75 1 vhcurveto
          -97 vlineto
          hintmask 11110010
          162 -8 118 72 134 vvcurveto
          106 -93 34 -33 10 vhcurveto
          hintmask 11110100
          37 14 59 50 78 vvcurveto
          endchar
        </CharString>
        <CharString name="grave">
          -393 564 117 hstem
          143 681 -94 callsubr
        </CharString>
        <CharString name="greater">
          1 69 -21 442 -20 hstem
          132 48 rmoveto
          415 185 rlineto
          72 vlineto
          -415 185 rlineto
          -103 vlineto
          301 -118 -301 -118 rlineto
          endchar
        </CharString>
        <CharString name="greaterequal">
          -80 121 81 392 -20 hstem
          478 202 rmoveto
          -370 -81 370 hlineto
          -370 118 rmoveto
          370 143 rlineto
          68 vlineto
          -370 144 rlineto
          -88 vlineto
          245 -90 -245 -90 rlineto
          endchar
        </CharString>
        <CharString name="guillemotleft">
          -39 -3 callgsubr
          341 445 -56 callgsubr
          405 190 -56 callgsubr
          endchar
        </CharString>
        <CharString name="guillemotright">
          -24 -3 callgsubr
          275 64 -56 callsubr
          -405 -190 -56 callsubr
          endchar
        </CharString>
        <CharString name="guilsinglleft">
          -272 -3 callgsubr
          340 445 -56 callgsubr
          endchar
        </CharString>
        <CharString name="guilsinglright">
          -250 -3 callgsubr
          54 64 -56 callsubr
          endchar
        </CharString>
        <CharString name="h">
          -48 -28 callsubr
          182 -69 callgsubr
          endchar
        </CharString>
        <CharString name="hbar">
          -22 -28 callsubr
          46 82 54 -20 hstem
          114 120 202 119 vstem
          334 -46 callgsubr
          -39 -33 -6 -11 -28 hvcurveto
          63 140 82 -140 54 -120 -54 -82 -82 82 -553 -70 callgsubr
          endchar
        </CharString>
        <CharString name="hcircumflex">
          -48 -28 callsubr
          182 35 122 -69 callgsubr
          -160 273 rmoveto
          -86 callsubr
        </CharString>
        <CharString name="hookcmb">
          -648 622 -21 99 50 hstem
          -234 64 vstem
          -234 676 -104 callgsubr
        </CharString>
        <CharString name="horncmb">
          -648 441 57 130 -20 hstem
          -192 628 rmoveto
          -89 -57 31 -44 rlineto
          -19 -33 -14 -10 -28 hhcurveto
          -28 -23 16 0 hvcurveto
          -57 vlineto
          0 28 -16 31 30 33 12 27 43 vhcurveto
          42 27 42 27 0 vvcurveto
          endchar
        </CharString>
        <CharString name="hungarumlaut">
          -257 564 117 hstem
          60 564 rmoveto
          67 hlineto
          93 117 rlineto
          -98 hlineto
          72 -117 -102 callsubr
        </CharString>
        <CharString name="hyphen">
          -184 251 94 hstem
          79 345 rmoveto
          -94 305 94 vlineto
          endchar
        </CharString>
        <CharString name="i">
          -1 callsubr
          567 110 hstem
          96 -77 callgsubr
          216 hmoveto
          499 -120 -499 vlineto
          121 10 callsubr
          endchar
        </CharString>
        <CharString name="iacute">
          -1 callsubr
          564 117 hstem
          96 -77 callgsubr
          -69 callsubr
          -95 65 -102 callsubr
        </CharString>
        <CharString name="ibreve">
          -1 callsubr
          545 -30 callsubr
          45 222 hintmask 10110000
          -69 callsubr
          -19 153 rmoveto
          hintmask 11010000
          -80 callsubr
          hintmask 10110000
          -99 callgsubr
          endchar
        </CharString>
        <CharString name="icircumflex">
          -1 callsubr
          686 -20 hstem
          96 -77 callgsubr
          -69 callsubr
          -60 121 rmoveto
          -86 callsubr
        </CharString>
        <CharString name="idieresis">
          -1 callsubr
          564 95 hstem
          26 -9 callsubr
          vstem
          -69 callsubr
          -89 160 -91 callsubr
        </CharString>
        <CharString name="idotbelow">
          -336 -145 95 71 -21 567 110 hstem
          96 -77 callgsubr
          216 499 rmoveto
          -120 -499 -51 callsubr
          1 677 rmoveto
          -123 -110 123 hlineto
          -11 -617 -93 callgsubr
        </CharString>
        <CharString name="igrave">
          -1 callsubr
          564 117 hstem
          96 -77 callgsubr
          -69 callsubr
          -87 182 -94 callsubr
        </CharString>
        <CharString name="ihookabove">
          -1 callsubr
          663 50 hstemhm
          96 120 -50 64 hintmask 11100000
          -69 callsubr
          hintmask 11010000
          -50 140 -104 callgsubr
        </CharString>
        <CharString name="imacron">
          -337 21 -21 576 71 hstem
          -69 callsubr
          57 148 -73 callsubr
        </CharString>
        <CharString name="infinity">
          87 212 71 171 71 hstem
          57 82 455 82 vstem
          527 525 rmoveto
          -73 -51 -46 -47 -37 hvcurveto
          47 -36 -52 46 -74 hhcurveto
          -58 -89 -42 -115 -114 89 -42 58 74 50 46 47 38 hvcurveto
          -47 37 51 -46 73 hhcurveto
          60 89 42 114 115 -89 42 -60 hvcurveto
          -318 -242 rmoveto
          -4 -66 1 84 85 66 1 4 45 40 -45 -41 29 hvcurveto
          -40 -29 -40 -45 -45 hhcurveto
          315 hmoveto
          -48 -40 44 41 -27 hvcurveto
          41 27 40 45 48 hhcurveto
          2 68 -1 -85 -84 -68 -1 -2 hvcurveto
          endchar
        </CharString>
        <CharString name="integral">
          -295 -122 82 649 10 callgsubr
          hintmask 11010000
          290 691 rmoveto
          -111 -55 -63 -123 hvcurveto
          -441 vlineto
          -104 -45 0 -47 vhcurveto
          hintmask 11100000
          -23 callsubr
          441 vlineto
          104 45 0 47 vhcurveto
          hintmask 11001000
          -8 callgsubr
          endchar
        </CharString>
        <CharString name="iogonek">
          -336 -175 58 138 -21 567 110 hstemhm
          41 175 -15 callgsubr
          hintmask 11110000
          145 -117 rmoveto
          -18 callgsubr
          499 vlineto
          hintmask 11101000
          -120 -499 33 hlineto
          hintmask 11110000
          -4 -2 -84 -46 -60 -75 callgsubr
          -51 hlineto
          -47 callsubr
          -50 794 rmoveto
          -110 123 110 vlineto
          endchar
        </CharString>
        <CharString name="itilde">
          -1 callsubr
          hstem
          -69 callsubr
          92 83 -104 callsubr
        </CharString>
        <CharString name="j">
          -358 -193 93 667 110 8 callgsubr
          217 10 callsubr
          2 -68 rmoveto
          -514 vlineto
          hintmask 11100000
          -44 2 -36 -95 -52 callsubr
          506 vlineto
          hintmask 11010000
          -120 hlineto
          endchar
        </CharString>
        <CharString name="jcircumflex">
          -358 -193 93 599 65 -41 callgsubr
          3 213 -15 callgsubr
          hintmask 11101000
          96 499 rmoveto
          -514 vlineto
          hintmask 11110000
          -44 2 -36 -95 -52 callsubr
          506 vlineto
          hintmask 11101000
          -60 121 rmoveto
          -86 callsubr
        </CharString>
        <CharString name="k">
          -49 21 -21 686 -20 hstem
          92 -77 callgsubr
          -53 callsubr
          152 hlineto
          endchar
        </CharString>
        <CharString name="kcommaaccent">
          -49 -16 callgsubr
          686 -20 hstemhm
          92 120 24 -39 callsubr
          hintmask 11110100
          -53 callsubr
          -136 -50 rmoveto
          hintmask 11111000
          -97 callgsubr
        </CharString>
        <CharString name="kgreenlandic">
          -49 21 -21 499 -20 hstem
          92 -77 callgsubr
          562 hmoveto
          -240 277 217 222 rlineto
          -159 hlineto
          -168 -183 rlineto
          183 -120 -499 120 163 vlineto
          33 34 165 -197 rlineto
          endchar
        </CharString>
        <CharString name="l">
          -326 21 -21 689 -20 hstem
          101 -77 callgsubr
          221 hmoveto
          689 -120 -689 120 vlineto
          endchar
        </CharString>
        <CharString name="lacute">
          -326 21 -21 724 117 hstem
          101 -77 callgsubr
          221 hmoveto
          -120 689 -51 callsubr
          -95 35 -102 callsubr
        </CharString>
        <CharString name="lcaron">
          -326 21 -21 689 -20 hstemhm
          101 120 34 -39 callsubr
          hintmask 11101000
          -27 callgsubr
          72 689 rmoveto
          hintmask 11110000
          -97 callgsubr
        </CharString>
        <CharString name="lcommaaccent">
          -326 -40 callsubr
          50 689 -20 hstemhm
          88 108 -95 120 -95 70 hintmask 11101000
          -27 callgsubr
          hintmask 11100100
          -95 -50 rmoveto
          hintmask 11110000
          -97 callgsubr
        </CharString>
        <CharString name="ldot">
          -310 21 -21 287 95 307 -20 hstem
          101 120 58 101 vstem
          -27 callgsubr
          159 382 -93 callgsubr
        </CharString>
        <CharString name="less">
          12 69 -21 442 -20 hstem
          535 490 rmoveto
          -415 -185 rlineto
          -72 vlineto
          415 -185 rlineto
          103 vlineto
          -301 118 301 118 rlineto
          endchar
        </CharString>
        <CharString name="lessequal">
          -77 121 81 389 -20 hstem
          107 121 rmoveto
          370 81 -370 hlineto
          370 389 rmoveto
          -370 -143 rlineto
          -68 vlineto
          370 -144 rlineto
          88 vlineto
          -245 90 245 90 rlineto
          endchar
        </CharString>
        <CharString name="logicalnot">
          -26 240 94 hstemhm
          439 86 vstemhm
          97 334 rmoveto
          -94 342 vlineto
          hintmask 11000000
          -96 86 190 vlineto
          endchar
        </CharString>
        <CharString name="lozenge">
          -12 -15 -21 740 -20 hstem
          319 704 rmoveto
          -255 -370 255 -370 255 370 rlineto
          -255 -239 rmoveto
          -160 239 160 240 161 -240 rlineto
          endchar
        </CharString>
        <CharString name="lslash">
          -304 21 -21 689 -20 hstemhm
          18 203 -120 -1 callgsubr
          228 hintmask 11010000
          221 437 rmoveto
          252 -120 -328 vlineto
          hintmask 11100000
          -83 -52 rlineto
          -91 vlineto
          hintmask 11010000
          83 52 rlineto
          -270 120 346 vlineto
          hintmask 11001000
          108 67 rlineto
          91 vlineto
          endchar
        </CharString>
        <CharString name="m">
          284 21 -21 403 104 hstem
          94 120 195 119 195 120 cntrmask 00111000
          629 -46 callgsubr
          -76 -64 -21 -16 -40 hvcurveto
          24 -35 -45 13 -55 hhcurveto
          -121 -95 -54 -2 -4 hvcurveto
          -451 120 395 vlineto
          5 25 28 3 30 hhcurveto
          93 19 -37 -55 hvcurveto
          -311 119 300 vlineto
          69 -21 24 0 vhcurveto
          7 29 35 5 38 hhcurveto
          95 19 -39 -58 hvcurveto
          -308 120 300 vlineto
          130 -80 77 -134 vhcurveto
          endchar
        </CharString>
        <CharString name="macron">
          -245 576 71 hstem
          320 647 -73 callsubr
        </CharString>
        <CharString name="mu">
          -2 -189 -21 202 106 401 -20 hstem
          99 119 211 -77 callgsubr
          429 499 rmoveto
          -392 vlineto
          -5 -27 -32 -4 -34 hhcurveto
          -109 -9 47 44 hvcurveto
          310 -119 -709 119 227 vlineto
          -12 19 30 -13 53 hhcurveto
          127 98 53 2 4 hvcurveto
          452 vlineto
          endchar
        </CharString>
        <CharString name="multiply">
          -129 99 -21 356 -20 hstem
          442 434 rmoveto
          -89 hlineto
          -94 -120 -93 120 rlineto
          -90 hlineto
          138 -178 -138 -178 rlineto
          90 hlineto
          93 119 94 -119 rlineto
          89 hlineto
          -137 178 rlineto
          endchar
        </CharString>
        <CharString name="n">
          -26 -28 callsubr
          hstem
          82 120 211 119 vstem
          -89 callgsubr
          endchar
        </CharString>
        <CharString name="nacute">
          -26 -28 callsubr
          57 117 hstem
          82 120 211 119 vstem
          -89 callgsubr
          -45 57 -102 callsubr
        </CharString>
        <CharString name="napostrophe">
          -26 -28 callsubr
          157 -20 hstemhm
          39 108 -65 65 -65 120 211 119 hintmask 11101010
          311 -46 callgsubr
          -127 -98 -53 -2 -4 hvcurveto
          -452 vlineto
          hintmask 11100110
          0 callgsubr
          hlineto
          5 27 32 4 34 hhcurveto
          109 9 -47 -44 hvcurveto
          -310 119 300 vlineto
          130 -82 77 -139 vhcurveto
          -234 157 rmoveto
          hintmask 11110010
          -97 callgsubr
        </CharString>
        <CharString name="ncaron">
          -26 -28 callsubr
          179 -20 hstem
          82 120 211 119 vstem
          -89 callgsubr
          -4 123 -99 callsubr
        </CharString>
        <CharString name="ncommaaccent">
          -26 -16 callgsubr
          401 106 hstemhm
          82 120 38 -39 callsubr
          65 119 hintmask 11110110
          -89 callgsubr
          -33 -557 rmoveto
          hintmask 11111010
          -97 callgsubr
        </CharString>
        <CharString name="nine">
          -45 -8 112 118 108 240 106 hstem
          57 3 callgsubr
          283 222 rmoveto
          33 57 9 25 32 hvcurveto
          -130 -24 -116 -22 -50 hhcurveto
          -31 -43 2 11 -34 hvcurveto
          -106 vlineto
          -11 38 41 -8 36 hhcurveto
          93 215 36 333 209 -80 106 -157 -173 -63 -126 -107 -136 81 -85 145 hvcurveto
          10 348 rmoveto
          41 82 -29 -177 -7 hvcurveto
          -12 -18 -38 -22 -60 hhcurveto
          -74 -41 45 67 27 8 101 107 hvcurveto
          endchar
        </CharString>
        <CharString name="nine.denominator">
          -299 -4 -57 callgsubr
          364 -92 callsubr
        </CharString>
        <CharString name="nine.inferior">
          -299 -154 -57 callgsubr
          214 -92 callsubr
        </CharString>
        <CharString name="nine.numerator">
          -299 310 -57 callgsubr
          678 -92 callsubr
        </CharString>
        <CharString name="nine.superior">
          -299 458 -57 callgsubr
          826 -92 callsubr
        </CharString>
        <CharString name="notequal">
          -37 31 -21 132 86 85 86 133 -20 hstem
          498 313 rmoveto
          86 -77 vlineto
          53 96 -65 37 -75 -133 rlineto
          -221 -86 173 hlineto
          -48 -85 rlineto
          -125 -86 77 hlineto
          -54 -95 66 -37 75 132 rlineto
          221 86 -173 hlineto
          48 85 rlineto
          endchar
        </CharString>
        <CharString name="ntilde">
          -26 -28 callsubr
          hstem
          82 120 211 119 vstem
          -89 callgsubr
          152 75 -104 callsubr
        </CharString>
        <CharString name="numbersign">
          -54 19 180 -74 74 143 74 -74 180 hstemhm
          hintmask 10100000
          534 342 rmoveto
          74 -65 vlineto
          hintmask 10010000
          19 106 rlineto
          -78 hlineto
          hintmask 10100000
          -19 -106 rlineto
          -113 hlineto
          hintmask 10010000
          19 106 rlineto
          -79 hlineto
          hintmask 10100000
          -18 -106 rlineto
          -98 -74 85 hlineto
          -25 -143 rlineto
          -88 hlineto
          hintmask 01100000
          -74 76 vlineto
          hintmask 10100000
          -19 -106 rlineto
          79 hlineto
          hintmask 01100000
          18 106 rlineto
          113 hlineto
          hintmask 10100000
          -19 -106 rlineto
          79 hlineto
          hintmask 01100000
          19 106 rlineto
          87 74 -75 hlineto
          25 143 rlineto
          -103 -143 rmoveto
          -113 hlineto
          25 143 rlineto
          112 hlineto
          endchar
        </CharString>
        <CharString name="o">
          -58 callsubr
          hstem
          -48 callsubr
          -77 callgsubr
          -106 callsubr
          endchar
        </CharString>
        <CharString name="oacute">
          -58 callsubr
          58 117 hstem
          -48 callsubr
          -77 callgsubr
          -106 callsubr
          -34 473 -102 callsubr
        </CharString>
        <CharString name="obreve">
          -58 callsubr
          39 -30 callsubr
          -41 callsubr
          5 222 5 120 cntrmask 00001110
          hintmask 11011110
          -106 callsubr
          41 561 rmoveto
          hintmask 11101110
          -80 callsubr
          hintmask 11011110
          -99 callgsubr
          endchar
        </CharString>
        <CharString name="ocircumflex">
          -58 callsubr
          0 58 -41 callgsubr
          -48 callsubr
          120 hintmask 11011100
          -106 callsubr
          529 vmoveto
          hintmask 10111100
          -86 callsubr
        </CharString>
        <CharString name="ocircumflexacute">
          -58 callsubr
          124 117 -78 -20 hstemhm
          -48 callsubr
          120 hintmask 11011100
          -67 callgsubr
          -105 callsubr
          hintmask 11101100
          107 83 -102 callsubr
        </CharString>
        <CharString name="ocircumflexdotbelow">
          -84 -34 callgsubr
          -55 callsubr
          0 41 -41 callgsubr
          -41 callsubr
          66 101 65 120 hintmask 11101111
          -67 callgsubr
          hintmask 11011111
          -105 callsubr
          87 -597 -93 callgsubr
        </CharString>
        <CharString name="ocircumflexgrave">
          -58 callsubr
          124 117 -78 -20 hstemhm
          -48 callsubr
          120 hintmask 11011100
          -67 callgsubr
          -105 callsubr
          hintmask 11101100
          -96 200 -94 callsubr
        </CharString>
        <CharString name="ocircumflexhookabove">
          -58 callsubr
          41 232 -110 -20 80 50 hstemhm
          -48 callsubr
          54 -54 120 hintmask 11100101
          -67 callgsubr
          36 -56 rlineto
          80 hlineto
          hintmask 11011110
          -92 122 rlineto
          -48 hlineto
          hintmask 11100110
          -64 callgsubr
        </CharString>
        <CharString name="ocircumflextilde">
          -58 callsubr
          0 35 hstemhm
          -48 callsubr
          120 hintmask 11011000
          -106 callsubr
          506 vmoveto
          hintmask 10111000
          -87 callsubr
        </CharString>
        <CharString name="odieresis">
          -58 callsubr
          58 95 hstemhm
          -41 callsubr
          -14 -9 callsubr
          -15 120 hintmask 11110010
          -106 callsubr
          hintmask 11101100
          -29 568 -91 callsubr
        </CharString>
        <CharString name="odotbelow">
          -82 -34 callgsubr
          -55 callsubr
          hstem
          -41 callsubr
          66 101 65 -77 callgsubr
          -106 callsubr
          51 -141 -93 callgsubr
        </CharString>
        <CharString name="oe">
          257 -7 102 -82 -21 212 83 121 100 -1 -20 hstemhm
          48 120 232 123 hintmask 10110110
          846 266 rmoveto
          125 -67 117 -156 -76 -53 -25 -41 -36 vhcurveto
          hintmask 10101110
          42 -40 -59 23 -75 hhcurveto
          -45 callsubr
          -91 -166 -166 84 -91 152 75 59 22 43 40 hvcurveto
          hintmask 01110110
          -53 48 68 -13 58 -12 callsubr
          hintmask 10110110
          -20 -42 -57 -19 -71 hhcurveto
          -58 -62 13 96 -7 hvcurveto
          321 hlineto
          2 20 0 20 22 vvcurveto
          -562 -174 rmoveto
          -71 -45 26 132 132 45 26 71 71 45 -26 -132 -132 -45 -26 -71 hvcurveto
          239 195 -31 callsubr
          endchar
        </CharString>
        <CharString name="ogonek">
          -297 -175 58 -58 175 hstemhm
          hintmask 10000000
          223 -59 callsubr
          hvcurveto
          hintmask 01000000
          34 48 37 41 23 vhcurveto
          -87 hlineto
          -4 -2 -84 -46 -60 -75 callgsubr
          endchar
        </CharString>
        <CharString name="ograve">
          -58 callsubr
          58 117 hstem
          -48 callsubr
          -77 callgsubr
          -106 callsubr
          -28 590 -94 callsubr
        </CharString>
        <CharString name="ohookabove">
          -58 callsubr
          157 50 hstem
          -41 callsubr
          124 64 44 -77 callgsubr
          -106 callsubr
          8 548 -104 callgsubr
        </CharString>
        <CharString name="ohorn">
          19 -62 callsubr
          18 -20 hstemhm
          -48 callsubr
          120 hintmask 10111000
          620 524 rmoveto
          -89 -57 31 -44 -31 -18 -15 -10 -25 -1 rlinecurve
          hintmask 11011000
          73 -37 -70 39 -99 hhcurveto
          -45 callsubr
          -91 -166 -166 84 -91 152 152 84 91 166 32 -3 30 -7 27 hvcurveto
          26 3 28 13 36 22 84 54 rcurveline
          hintmask 10111000
          7 callgsubr
          hintmask 11011000
          132 45 26 71 71 45 -26 -132 -132 -45 -26 -71 vhcurveto
          endchar
        </CharString>
        <CharString name="ohornacute">
          19 -62 callsubr
          58 117 hstem
          -48 callsubr
          -95 callsubr
          -34 473 -102 callsubr
        </CharString>
        <CharString name="ohorndotbelow">
          19 -34 callgsubr
          -55 callsubr
          18 -20 hstemhm
          -41 callsubr
          65 101 66 120 hintmask 11011110
          620 524 rmoveto
          -89 -57 31 -44 -31 -18 -15 -10 -25 -1 rlinecurve
          hintmask 11101110
          73 -37 -70 39 -99 hhcurveto
          -45 callsubr
          -91 -166 -166 84 -91 152 152 84 91 166 32 -3 30 -7 27 hvcurveto
          26 3 28 13 36 22 84 54 rcurveline
          hintmask 11011110
          7 callgsubr
          hintmask 11101110
          132 45 26 71 71 45 -26 -132 -132 -45 -26 -71 vhcurveto
          50 -141 -93 callgsubr
        </CharString>
        <CharString name="ohorngrave">
          19 -62 callsubr
          58 117 hstem
          -48 callsubr
          -95 callsubr
          -28 590 -94 callsubr
        </CharString>
        <CharString name="ohornhookabove">
          19 -62 callsubr
          157 50 hstem
          -41 callsubr
          123 64 45 -95 callsubr
          7 548 -104 callgsubr
        </CharString>
        <CharString name="ohorntilde">
          19 -62 callsubr
          hstem
          -48 callsubr
          -95 callsubr
          154 491 -104 callsubr
        </CharString>
        <CharString name="ohungarumlaut">
          -58 callsubr
          58 117 hstem
          -48 callsubr
          -77 callgsubr
          -106 callsubr
          -112 473 rmoveto
          67 hlineto
          93 117 rlineto
          -98 hlineto
          72 -117 -102 callsubr
        </CharString>
        <CharString name="omacron">
          -58 callsubr
          70 71 hstem
          -48 callsubr
          -77 callgsubr
          -106 callsubr
          117 556 -73 callsubr
        </CharString>
        <CharString name="one">
          -163 -28 callgsubr
          hstemhm
          103 239 -15 callgsubr
          hintmask 11100000
          233 -72 callgsubr
          -130 -82 rlineto
          -128 vlineto
          hintmask 11010000
          119 73 rlineto
          -530 120 667 vlineto
          endchar
        </CharString>
        <CharString name="one.denominator">
          -398 22 -21 359 -51 callgsubr
          hintmask 11100000
          53 316 rmoveto
          -69 vlineto
          hintmask 11010000
          -68 callgsubr
          endchar
        </CharString>
        <CharString name="one.inferior">
          -398 -129 -21 359 -51 callgsubr
          hintmask 11100000
          53 165 rmoveto
          -69 vlineto
          hintmask 11010000
          -68 callgsubr
          endchar
        </CharString>
        <CharString name="one.numerator">
          -398 336 -21 359 -51 callgsubr
          hintmask 11100000
          -4 callgsubr
          hintmask 11010000
          -68 callgsubr
          endchar
        </CharString>
        <CharString name="one.superior">
          -398 484 -21 359 -51 callgsubr
          hintmask 11100000
          53 778 rmoveto
          -69 vlineto
          hintmask 11010000
          -68 callgsubr
          endchar
        </CharString>
        <CharString name="oneeighth">
          101 -13 callgsubr
          97 49 310 -20 31 -51 callgsubr
          255 64 -52 65 104 65 -52 52 hintmask 1011101010100000
          -4 callgsubr
          hintmask 1011100110100000
          -68 callgsubr
          hintmask 0111011001010000
          -43 callsubr
          32 -492 -84 callsubr
          hintmask 1011101010010000
          0 -65 -17 -69 vvcurveto
          -69 46 -42 83 83 46 42 69 69 -64 17 0 vhcurveto
          -65 118 rmoveto
          hintmask 1011101001100000
          -85 callgsubr
          hintmask 1011101010010000
          -76 callsubr
        </CharString>
        <CharString name="onehalf">
          98 -1 -21 22 64 236 64 310 -20 31 -51 callgsubr
          278 229 -54 callsubr
          90 -428 rmoveto
          51 -33 56 -92 -41 -36 -15 -16 -27 vhcurveto
          -65 vlineto
          18 25 41 14 36 hhcurveto
          hintmask 11110101
          49 14 -22 -21 -67 -111 -95 -57 -42 hvcurveto
          -53 238 64 -130 vlineto
          58 49 66 73 71 vvcurveto
          endchar
        </CharString>
        <CharString name="onequarter">
          73 -1 -21 43 -21 102 57 515 -20 31 -51 callgsubr
          382 64 -54 callsubr
          29 -326 -84 callgsubr
          endchar
        </CharString>
        <CharString name="onethird">
          91 -3 64 -62 -21 187 53 82 65 309 -20 31 -51 callgsubr
          284 214 -65 65 -47 64 hintmask 1011101010000000
          -4 callgsubr
          hintmask 1011100110000000
          -68 callgsubr
          hintmask 0111011010000000
          -43 callsubr
          37 -490 rmoveto
          24 13 20 21 34 vvcurveto
          77 -61 25 -63 -34 -30 -10 -12 -26 vhcurveto
          -66 vlineto
          13 21 29 10 36 hhcurveto
          hintmask 1011101001000000
          26 37 -7 -32 -22 -17 -21 -42 hvcurveto
          -48 -53 46 hlineto
          hintmask 1011101000100000
          62 17 -28 -27 -36 -32 -13 -45 -38 -33 12 16 -27 hvcurveto
          -66 vlineto
          -15 28 35 -11 39 hhcurveto
          59 78 25 87 44 -26 30 -35 12 hvcurveto
          endchar
        </CharString>
        <CharString name="ordfeminine">
          -253 388 59 81 43 48 56 hstem
          75 66 102 68 vstem
          188 675 rmoveto
          -33 -28 -6 -10 -24 hvcurveto
          -54 vlineto
          9 21 27 5 33 hhcurveto
          44 15 -22 -30 hvcurveto
          2 -15 -16 2 -18 hhcurveto
          -111 -8 -67 -21 -46 31 -49 88 86 31 49 45 hvcurveto
          75 vlineto
          76 -44 42 -79 vhcurveto
          56 -185 rmoveto
          -26 -13 -17 -38 -35 -17 16 29 23 18 13 45 15 13 -2 -1 12 vhcurveto
          endchar
        </CharString>
        <CharString name="ordmasculine">
          -231 389 55 177 55 hstem
          74 67 130 67 vstem
          206 676 rmoveto
          -85 -47 -51 -92 -93 47 -51 85 85 47 51 93 92 -47 51 -85 hvcurveto
          -232 vmoveto
          -40 -25 15 74 73 25 15 40 39 26 -15 -73 -74 -26 -15 -39 hvcurveto
          endchar
        </CharString>
        <CharString name="oslash">
          -74 -8 99 -70 -21 407 99 hstemhm
          51 120 232 120 hintmask 01111000
          -52 callgsubr
          hintmask 10111000
          -74 callsubr
          endchar
        </CharString>
        <CharString name="oslashacute">
          -84 -8 99 -70 -21 407 99 58 117 hstemhm
          51 120 232 120 hintmask 01111100
          -52 callgsubr
          hintmask 10111100
          -74 callsubr
          -152 315 -102 callsubr
        </CharString>
        <CharString name="otilde">
          -58 callsubr
          hstem
          -48 callsubr
          -77 callgsubr
          -106 callsubr
          152 491 -104 callsubr
        </CharString>
        <CharString name="p">
          -74 11 callgsubr
          82 120 193 -33 callsubr
          292 506 rmoveto
          -155 -55 -87 -81 hvcurveto
          -523 120 184 vlineto
          -6 27 27 -3 28 hhcurveto
          149 83 90 163 237 -157 26 -67 hvcurveto
          -16 -423 rmoveto
          -29 -24 3 3 -21 hvcurveto
          260 vlineto
          42 37 12 53 77 26 -52 -114 -121 -47 -33 -72 vhcurveto
          endchar
        </CharString>
        <CharString name="paragraph">
          -203 -24 callgsubr
          301 113 vstem
          268 -72 callgsubr
          -149 -81 -73 -132 -133 81 -73 149 hvcurveto
          33 -256 113 667 -146 hlineto
          endchar
        </CharString>
        <CharString name="parenleft">
          -281 -92 -21 837 -20 hstem
          93 104 vstem
          300 724 rmoveto
          -104 hlineto
          -41 -81 -62 -153 -184 vvcurveto
          -185 62 -152 41 -82 vhcurveto
          104 hlineto
          -41 82 -62 152 185 vvcurveto
          184 62 153 41 81 vhcurveto
          endchar
        </CharString>
        <CharString name="parenright">
          -281 -92 -21 837 -20 hstem
          168 104 vstem
          65 -113 rmoveto
          104 hlineto
          41 82 62 152 185 vvcurveto
          184 -62 153 -41 81 vhcurveto
          -104 hlineto
          42 -81 61 -153 -184 vvcurveto
          -185 -61 -152 -42 -82 vhcurveto
          endchar
        </CharString>
        <CharString name="partialdiff">
          -43 -17 callgsubr
          hstem
          65 3 callgsubr
          230 676 rmoveto
          -23 -26 -3 -6 -25 hvcurveto
          -107 vlineto
          3 24 24 1 19 hhcurveto
          50 116 -22 -130 24 hvcurveto
          -32 callsubr
          333 -215 36 -93 hvcurveto
          71 -578 -31 callgsubr
        </CharString>
        <CharString name="percent">
          220 1 callgsubr
          71 78 126 79 166 78 126 79 hintmask 0110111110000000
          605 -72 callgsubr
          -419 -667 rlineto
          85 hlineto
          419 667 rlineto
          hintmask 1011011110000000
          -478 -3 -89 callsubr
          449 1 -89 callsubr
          endchar
        </CharString>
        <CharString name="period">
          -277 0 111 hstem
          127 117 vstem
          244 111 -36 callsubr
          endchar
        </CharString>
        <CharString name="periodcentered">
          -324 217 111 hstem
          103 117 vstem
          220 328 -36 callsubr
          endchar
        </CharString>
        <CharString name="perthousand">
          533 1 callgsubr
          75 78 126 79 138 78 126 79 53 78 126 79 hintmask 0110111111100000
          593 -72 callgsubr
          -419 -667 rlineto
          85 hlineto
          419 667 rlineto
          hintmask 1011011111100000
          -462 -3 -89 callsubr
          421 1 -89 callsubr
          336 294 -89 callsubr
          endchar
        </CharString>
        <CharString name="pi">
          -14 21 -21 397 102 hstem
          135 104 153 103 vstem
          599 397 rmoveto
          102 -566 -102 102 -397 104 397 153 -397 103 397 vlineto
          endchar
        </CharString>
        <CharString name="plus">
          -97 143 -21 132 89 134 -20 hstem
          230 89 vstem
          319 477 rmoveto
          -89 -134 -43 callgsubr
          endchar
        </CharString>
        <CharString name="plusminus">
          -63 30 81 184 89 134 -20 hstem
          251 89 vstem
          340 518 rmoveto
          -89 -134 -43 callgsubr
          -222 -354 rmoveto
          355 81 -355 hlineto
          endchar
        </CharString>
        <CharString name="product">
          80 -106 -21 540 104 hstem
          160 103 199 103 vstem
          693 413 rmoveto
          104 -660 -104 127 -540 103 540 199 -540 103 540 vlineto
          endchar
        </CharString>
        <CharString name="published">
          130 -8 51 224 63 133 65 96 51 hstem
          49 51 174 70 149 70 118 51 vstem
          390 -88 callgsubr
          29 485 rmoveto
          -145 -389 70 128 75 hlineto
          91 53 47 83 83 -53 48 -91 hvcurveto
          -5 -198 rmoveto
          -70 133 70 hlineto
          65 14 -26 -40 -40 -14 -27 -65 hvcurveto
          endchar
        </CharString>
        <CharString name="q">
          -76 11 callgsubr
          56 3 callsubr
          56 243 rmoveto
          -163 82 -90 149 28 28 3 6 27 vhcurveto
          -184 120 523 vlineto
          81 -56 87 -155 -67 -156 -26 -237 vhcurveto
          120 -6 rmoveto
          114 26 52 77 54 37 -12 -42 vhcurveto
          -260 vlineto
          -3 -21 -25 -3 -29 hhcurveto
          -71 -48 33 121 hvcurveto
          endchar
        </CharString>
        <CharString name="question">
          -139 0 111 460 104 hstem
          190 106 41 107 vstem
          444 481 rmoveto
          96 -52 98 -155 -65 -53 -22 -25 -39 vhcurveto
          -111 vlineto
          23 26 53 31 70 hhcurveto
          73 35 -33 -56 hvcurveto
          -86 -147 -9 -182 vvcurveto
          -13 106 10 vlineto
          137 148 -3 145 vvcurveto
          -259 -370 rmoveto
          -111 117 111 vlineto
          endchar
        </CharString>
        <CharString name="questiondown">
          -139 -176 104 460 111 hstem
          76 107 41 106 vstem
          76 18 rmoveto
          -96 52 -98 155 65 53 22 25 39 vhcurveto
          111 vlineto
          -23 -26 -53 -31 -70 hhcurveto
          -73 -35 33 56 hvcurveto
          86 147 9 182 vvcurveto
          13 -106 -10 vlineto
          -137 -148 3 -145 vvcurveto
          259 370 rmoveto
          111 -117 -111 vlineto
          endchar
        </CharString>
        <CharString name="quotedbl">
          -245 -20 callgsubr
          44 hmoveto
          18 -201 rlineto
          65 hlineto
          17 201 rlineto
          endchar
        </CharString>
        <CharString name="quotedblbase">
          -185 -112 196 hstem
          146 84 -34 callsubr
        </CharString>
        <CharString name="quotedblleft">
          -229 480 196 hstem
          199 676 rmoveto
          -18 callsubr
          -257 hmoveto
          -18 callsubr
          endchar
        </CharString>
        <CharString name="quotedblright">
          -229 480 196 hstem
          121 676 -34 callsubr
        </CharString>
        <CharString name="quoteleft">
          -378 480 196 hstem
          47 676 rmoveto
          -18 callsubr
          endchar
        </CharString>
        <CharString name="quoteright">
          -378 480 196 hstem
          121 676 rmoveto
          -68 callsubr
          endchar
        </CharString>
        <CharString name="quotesinglbase">
          -330 -112 196 hstem
          146 -27 callsubr
          endchar
        </CharString>
        <CharString name="quotesingle">
          -387 -20 callgsubr
          endchar
        </CharString>
        <CharString name="r">
          -286 21 -21 403 104 hstemhm
          81 120 vstemhm
          81 454 rmoveto
          -454 120 386 vlineto
          hintmask 11100000
          -60 callsubr
          endchar
        </CharString>
        <CharString name="racute">
          -286 21 -21 395 104 65 117 hstemhm
          81 120 vstemhm
          -22 callsubr
          hintmask 11110000
          -60 callsubr
          91 118 -102 callsubr
        </CharString>
        <CharString name="radical">
          92 -24 callgsubr
          630 -72 callgsubr
          -219 -562 -109 279 rlineto
          -208 -81 144 hlineto
          126 -303 rlineto
          102 hlineto
          258 667 rlineto
          -94 hlineto
          endchar
        </CharString>
        <CharString name="rcaron">
          -286 21 -21 395 104 187 -20 hstemhm
          81 120 vstemhm
          -22 callsubr
          hintmask 11110000
          -60 callsubr
          122 184 -99 callsubr
        </CharString>
        <CharString name="rcommaaccent">
          -286 -40 callsubr
          50 395 104 hstemhm
          69 108 -96 -1 callgsubr
          249 -223 70 hintmask 11101000
          -22 callsubr
          hintmask 11100100
          -60 callsubr
          hintmask 11100010
          26 -496 rmoveto
          hintmask 11110000
          -97 callgsubr
        </CharString>
        <CharString name="registered">
          130 -8 51 96 201 -64 64 123 65 96 51 hstemhm
          49 51 158 70 153 70 130 51 hintmask 1101111110000000
          390 -88 callgsubr
          76 245 rmoveto
          38 11 47 30 74 vvcurveto
          81 -54 44 -90 vhcurveto
          -149 -389 70 hlineto
          hintmask 1011111110000000
          137 63 vlineto
          hintmask 1101111110000000
          92 -137 rlineto
          85 hlineto
          -240 201 rmoveto
          123 77 vlineto
          40 36 -9 -53 -52 -36 -9 -40 hvcurveto
          endchar
        </CharString>
        <CharString name="ring">
          -239 535 43 86 43 hstem
          116 53 68 53 vstem
          203 707 -42 callsubr
          -83 callsubr
        </CharString>
        <CharString name="s">
          4 callsubr
          hstem
          -41 callsubr
          118 -77 callgsubr
          -97 callsubr
          endchar
        </CharString>
        <CharString name="sacute">
          4 callsubr
          57 117 hstem
          -41 callsubr
          118 -77 callgsubr
          -97 callsubr
          9 202 -102 callsubr
        </CharString>
        <CharString name="scaron">
          4 callsubr
          179 -20 hstem
          -41 callsubr
          118 -77 callgsubr
          -97 callsubr
          54 268 -99 callsubr
        </CharString>
        <CharString name="scedilla">
          -197 -125 221 308 103 hstem
          -41 callsubr
          118 -77 callgsubr
          169 362 rmoveto
          32 36 10 50 47 38 -10 -14 30 vhcurveto
          91 vlineto
          22 -38 -46 14 -52 hhcurveto
          -99 -86 -51 -105 hvcurveto
          -173 238 48 -82 vvcurveto
          -27 -6 -21 -77 -57 -48 20 24 -36 vhcurveto
          -107 vlineto
          34 -20 43 -15 49 -4 -86 -119 rcurveline
          104 hlineto
          62 121 rlineto
          86 15 52 56 71 204 -238 -57 77 vvcurveto
          endchar
        </CharString>
        <CharString name="scircumflex">
          4 callsubr
          -2 callgsubr
          -41 callsubr
          118 120 hintmask 11011100
          -97 callsubr
          54 258 rmoveto
          hintmask 10111100
          -86 callsubr
        </CharString>
        <CharString name="scommaaccent">
          -197 -40 callsubr
          42 0 104 308 103 hstemhm
          -41 callsubr
          -2 -39 callsubr
          12 120 hintmask 10111011
          -97 callsubr
          hintmask 11011011
          36 -412 rmoveto
          hintmask 11010101
          -97 callgsubr
        </CharString>
        <CharString name="section">
          -39 -8 106 468 110 hstemhm
          67 129 -59 129 82 125 -59 129 hintmask 11010100
          543 315 rmoveto
          153 -277 -6 58 vvcurveto
          38 61 8 35 60 51 -18 -20 42 vhcurveto
          103 vlineto
          27 -47 -57 18 -64 hhcurveto
          -99 -111 -33 -110 -35 24 -36 30 -13 hvcurveto
          hintmask 11101000
          -55 -2 -69 -32 -69 -157 281 17 -63 vvcurveto
          -34 -52 -11 -46 -77 -60 30 35 -43 vhcurveto
          -112 vlineto
          -33 50 63 -26 79 hhcurveto
          131 80 58 86 38 -18 30 -23 14 hvcurveto
          hintmask 11100100
          58 6 53 32 59 vvcurveto
          -190 -46 rmoveto
          -102 34 -55 18 30 vvcurveto
          25 48 11 19 2 vhcurveto
          37 -16 114 -21 -40 vvcurveto
          -15 -17 -23 -44 -5 vhcurveto
          endchar
        </CharString>
        <CharString name="semicolon">
          -229 -112 196 269 109 hstem
          157 115 vstem
          163 -27 callsubr
          4 378 rmoveto
          4 callgsubr
          endchar
        </CharString>
        <CharString name="servicemark">
          82 335 54 -37 -21 286 51 4 -20 hstemhm
          56 60 109 60 49 60 206 59 hintmask 10101111
          497 529 rmoveto
          -97 139 rlineto
          -66 -9 callgsubr
          59 333 -66 vlineto
          -477 -91 rmoveto
          30 34 10 32 34 28 -12 -14 20 vhcurveto
          58 vlineto
          hintmask 10011111
          14 -26 -30 9 -33 hhcurveto
          -63 -56 -29 -67 hvcurveto
          -117 169 42 -74 vvcurveto
          -31 -34 -7 -35 -41 -31 14 18 -24 vhcurveto
          -61 vlineto
          hintmask 01101111
          -17 27 36 -12 47 hhcurveto
          62 53 37 55 hvcurveto
          136 -169 -43 61 vvcurveto
          endchar
        </CharString>
        <CharString name="seven">
          -61 21 -21 547 120 hstem
          69 -2 callsubr
          320 vlineto
          -266 -547 rlineto
          142 hlineto
          275 572 rlineto
          95 vlineto
          endchar
        </CharString>
        <CharString name="seven.denominator">
          -326 22 -4 callsubr
          296 -77 callsubr
        </CharString>
        <CharString name="seven.inferior">
          -326 -129 -4 callsubr
          145 -77 callsubr
        </CharString>
        <CharString name="seven.numerator">
          -326 336 -4 callsubr
          610 -77 callsubr
        </CharString>
        <CharString name="seven.superior">
          -326 484 -4 callsubr
          758 -77 callsubr
        </CharString>
        <CharString name="seveneighths">
          129 -13 callgsubr
          93 53 246 64 11 -20 hstemhm
          482 52 -52 65 117 52 -52 64 hintmask 0111010110000000
          552 685 rmoveto
          -437 -707 rlineto
          80 hlineto
          437 707 rlineto
          32 -492 -84 callsubr
          0 -65 -17 -69 vvcurveto
          hintmask 1011100110000000
          -69 46 -42 83 83 46 42 69 69 -64 17 0 vhcurveto
          -65 118 rmoveto
          -85 callgsubr
          hintmask 1011101001000000
          -82 callsubr
          -545 564 -77 callsubr
        </CharString>
        <CharString name="six">
          -51 -17 callgsubr
          hstem
          64 3 callgsubr
          311 446 rmoveto
          -33 -57 -9 -25 -32 hvcurveto
          130 24 116 22 50 hhcurveto
          31 43 -2 -11 34 hvcurveto
          106 vlineto
          11 -38 -41 8 -36 hhcurveto
          -93 -215 -36 -333 -209 80 -106 157 173 63 126 107 136 -81 85 -145 hvcurveto
          -10 -348 rmoveto
          -41 -82 29 177 7 hvcurveto
          12 18 38 22 60 hhcurveto
          74 41 -45 -67 -27 -8 -101 -107 hvcurveto
          endchar
        </CharString>
        <CharString name="six.denominator">
          -301 -4 -57 callsubr
          240 -92 callgsubr
        </CharString>
        <CharString name="six.inferior">
          -301 -154 -57 callsubr
          90 -92 callgsubr
        </CharString>
        <CharString name="six.numerator">
          -301 310 -57 callsubr
          554 -92 callgsubr
        </CharString>
        <CharString name="six.superior">
          -301 458 -57 callsubr
          702 -92 callgsubr
        </CharString>
        <CharString name="slash">
          -210 -77 -21 854 -20 hstem
          353 756 rmoveto
          -367 -854 rlineto
          99 hlineto
          368 854 rlineto
          endchar
        </CharString>
        <CharString name="space">
          -310 endchar
        </CharString>
        <CharString name="sterling">
          -85 276 95 210 94 hstem
          134 103 vstem
          354 581 rmoveto
          65 56 -31 -24 32 hvcurveto
          103 vlineto
          23 -40 -56 23 -66 hhcurveto
          -156 -55 -97 -92 hvcurveto
          -115 -85 -95 85 -156 vlineto
          -30 -7 -27 -5 -28 -21 rrcurveto
          -102 vlineto
          169 116 131 -174 158 80 rrcurveto
          105 vlineto
          -88 -52 -94 34 -88 23 rrcurveto
          159 184 95 -184 108 vlineto
          61 39 41 78 vhcurveto
          endchar
        </CharString>
        <CharString name="summation">
          -77 0 103 462 102 hstem
          511 -72 callgsubr
          -434 -93 hlineto
          153 -240 -153 -237 rlineto
          -97 434 103 -306 vlineto
          147 231 -147 231 rlineto
          306 hlineto
          endchar
        </CharString>
        <CharString name="t">
          -260 -8 103 301 -49 callsubr
          hintmask 11101000
          -26 callsubr
          hintmask 11110000
          -63 callgsubr
          hintmask 11101000
          -63 callsubr
          hintmask 11110000
          -21 callgsubr
          hintmask 11101000
          118 hlineto
          endchar
        </CharString>
        <CharString name="tbar">
          -260 -8 103 130 84 87 -49 callsubr
          hintmask 11110100
          -26 callsubr
          hintmask 11111000
          -118 148 -120 -148 -84 -103 84 -87 -66 -84 66 -68 hlineto
          -103 60 -62 99 vhcurveto
          hintmask 11110100
          -63 callsubr
          hintmask 11111000
          -44 -17 11 44 hvcurveto
          75 100 84 -100 87 vlineto
          endchar
        </CharString>
        <CharString name="tcaron">
          -260 -8 103 301 103 213 -20 hstemhm
          108 -1 callgsubr
          238 -53 -39 callsubr
          hintmask 11101000
          -26 callsubr
          hintmask 11110100
          -63 callgsubr
          hintmask 11101000
          -63 callsubr
          hintmask 11110100
          -21 callgsubr
          hintmask 11101000
          hintmask 11110010
          103 316 rmoveto
          hintmask 11110100
          -97 callgsubr
        </CharString>
        <CharString name="tcommaaccent">
          -85 callsubr
        </CharString>
        <CharString name="thorn">
          -83 -163 -21 182 95 314 95 182 2 callgsubr
          502 rmoveto
          -28 -27 -3 -5 -27 hvcurveto
          190 -120 -868 120 190 vlineto
          -5 27 27 -3 28 hhcurveto
          149 83 89 163 163 -83 89 -149 hvcurveto
          -4 -409 rmoveto
          -31 -26 3 5 -21 hvcurveto
          298 9 callsubr
          -124 -124 -46 -33 -69 hvcurveto
          endchar
        </CharString>
        <CharString name="three">
          -48 -8 119 193 99 153 120 hstemhm
          373 120 -88 119 hintmask 11110000
          411 360 rmoveto
          44 24 38 39 64 vvcurveto
          143 -113 46 -118 -62 -56 -18 -23 -49 vhcurveto
          -123 vlineto
          24 40 53 20 67 hhcurveto
          49 69 -13 -60 -42 -32 -38 -79 hvcurveto
          -88 -99 85 hlineto
          hintmask 11101000
          115 31 -51 -50 -67 -59 -25 -83 -71 -62 23 29 -49 hvcurveto
          -122 vlineto
          -28 52 64 -21 74 hhcurveto
          108 145 46 163 82 -48 54 -65 23 hvcurveto
          endchar
        </CharString>
        <CharString name="three.denominator">
          -313 -3 -61 callgsubr
          195 -94 callgsubr
        </CharString>
        <CharString name="three.inferior">
          -313 -154 -61 callgsubr
          44 -94 callgsubr
        </CharString>
        <CharString name="three.numerator">
          -313 310 -61 callgsubr
          508 -94 callgsubr
        </CharString>
        <CharString name="three.superior">
          -313 459 -61 callgsubr
          657 -94 callgsubr
        </CharString>
        <CharString name="threeeighths">
          196 -13 callgsubr
          92 -10 callgsubr
          230 64 -52 65 104 65 -52 52 hintmask 1011110100101000
          244 508 rmoveto
          24 13 20 21 34 vvcurveto
          77 -61 25 -63 -34 -30 -10 -12 -26 vhcurveto
          -66 vlineto
          13 21 29 10 36 hhcurveto
          hintmask 1011110010101000
          26 37 -7 -32 -22 -17 -21 -42 hvcurveto
          -48 -53 46 hlineto
          hintmask 0111101001010100
          62 17 -28 -27 -36 -32 -13 -45 -38 -33 12 16 -27 hvcurveto
          -66 vlineto
          -15 28 35 -11 39 hhcurveto
          59 78 25 87 44 -26 30 -35 12 hvcurveto
          373 177 rmoveto
          -437 -707 rlineto
          80 hlineto
          437 707 rlineto
          32 -492 -84 callsubr
          hintmask 1011110100100100
          0 -65 -17 -69 vvcurveto
          -69 46 -42 83 83 46 42 69 69 -64 17 0 vhcurveto
          -65 118 rmoveto
          hintmask 1011110100011000
          -85 callgsubr
          hintmask 1011110100100100
          -76 callsubr
        </CharString>
        <CharString name="threequarters">
          178 -1 -21 43 -21 102 57 151 -10 callgsubr
          360 64 hintmask 1111110100100000
          729 359 -84 callgsubr
          -421 238 rmoveto
          24 13 20 21 34 vvcurveto
          77 -61 25 -63 -34 -30 -10 -12 -26 vhcurveto
          -66 vlineto
          13 21 29 10 36 hhcurveto
          hintmask 1111110010100000
          26 37 -7 -32 -22 -17 -21 -42 hvcurveto
          -48 -53 46 hlineto
          hintmask 1111101001100000
          62 17 -28 -27 -36 -32 -13 -45 -38 -33 12 16 -27 hvcurveto
          -66 vlineto
          -15 28 35 -11 39 hhcurveto
          59 78 25 87 44 -26 30 -35 12 hvcurveto
          373 177 rmoveto
          -437 -707 rlineto
          80 hlineto
          437 707 rlineto
          endchar
        </CharString>
        <CharString name="tilde">
          -131 409 582 -104 callsubr
        </CharString>
        <CharString name="trademark">
          120 355 -21 274 59 hstem
          156 59 157 60 206 60 vstem
          49 608 rmoveto
          107 -274 59 274 107 59 -273 hlineto
          486 -139 rmoveto
          -96 139 rlineto
          -67 -9 callgsubr
          60 333 -67 vlineto
          endchar
        </CharString>
        <CharString name="two">
          -49 0 119 437 120 hstem
          389 119 vstem
          277 119 rmoveto
          108 90 123 136 131 vvcurveto
          96 -61 104 -171 -77 -67 -29 -30 -49 vhcurveto
          -119 vlineto
          32 46 75 26 67 hhcurveto
          91 27 -41 -39 -124 -207 -177 -105 -77 hvcurveto
          -98 441 119 vlineto
          endchar
        </CharString>
        <CharString name="two.denominator">
          -308 1 -40 callgsubr
          258 -86 callgsubr
        </CharString>
        <CharString name="two.inferior">
          -308 -149 -40 callgsubr
          108 -86 callgsubr
        </CharString>
        <CharString name="two.numerator">
          -308 315 -40 callgsubr
          572 -86 callgsubr
        </CharString>
        <CharString name="two.superior">
          -308 463 -40 callgsubr
          720 -86 callgsubr
        </CharString>
        <CharString name="u">
          -33 -8 105 402 -20 -45 callgsubr
          209 -33 callsubr
          412 499 rmoveto
          -289 vlineto
          -103 callsubr
          273 -121 vlineto
          endchar
        </CharString>
        <CharString name="uacute">
          -33 -8 105 467 117 -45 callgsubr
          209 -33 callsubr
          412 499 rmoveto
          -289 vlineto
          -103 callsubr
          273 vlineto
          -264 65 -102 callsubr
        </CharString>
        <CharString name="ubreve">
          -33 -8 105 448 -30 callsubr
          -20 callsubr
          -7 222 -6 121 hintmask 10110100
          412 499 rmoveto
          -289 vlineto
          -103 callsubr
          273 vlineto
          -185 153 rmoveto
          hintmask 11010100
          -80 callsubr
          hintmask 10101000
          -99 callgsubr
          endchar
        </CharString>
        <CharString name="ucaron">
          -33 -8 105 589 -20 -45 callgsubr
          209 -33 callsubr
          412 499 rmoveto
          -289 vlineto
          -103 callsubr
          273 vlineto
          -226 131 -99 callsubr
        </CharString>
        <CharString name="ucircumflex">
          -33 -8 105 402 65 0 callsubr
          -45 callgsubr
          209 -33 callsubr
          412 499 rmoveto
          -289 vlineto
          -103 callsubr
          273 vlineto
          -226 121 rmoveto
          -86 callsubr
        </CharString>
        <CharString name="udieresis">
          -33 -8 105 467 95 hstemhm
          -20 callsubr
          -26 -9 callsubr
          -26 121 hintmask 11100100
          412 499 rmoveto
          -289 vlineto
          -103 callsubr
          273 vlineto
          hintmask 11011000
          -255 160 -91 callsubr
        </CharString>
        <CharString name="udotbelow">
          -33 -34 callgsubr
          105 402 1 callsubr
          412 499 rmoveto
          -289 vlineto
          -103 callsubr
          273 vlineto
          -175 -549 -93 callgsubr
        </CharString>
        <CharString name="ugrave">
          -33 -8 105 467 117 -45 callgsubr
          209 -33 callsubr
          412 499 rmoveto
          -289 vlineto
          -103 callsubr
          273 vlineto
          -249 182 -94 callsubr
        </CharString>
        <CharString name="uhookabove">
          -33 -8 105 566 50 -45 callgsubr
          113 64 32 -33 callsubr
          412 499 rmoveto
          -289 vlineto
          -103 callsubr
          273 vlineto
          -217 140 -104 callgsubr
        </CharString>
        <CharString name="uhorn">
          80 -8 105 437 -20 -45 callgsubr
          209 -33 callsubr
          -98 callgsubr
          endchar
        </CharString>
        <CharString name="uhornacute">
          80 -8 105 467 117 -45 callgsubr
          209 -33 callsubr
          -98 callgsubr
          -467 124 -102 callsubr
        </CharString>
        <CharString name="uhorndotbelow">
          80 -34 callgsubr
          105 437 1 callsubr
          -98 callgsubr
          -378 -490 -93 callgsubr
        </CharString>
        <CharString name="uhorngrave">
          80 -8 105 467 117 -45 callgsubr
          209 -33 callsubr
          -98 callgsubr
          -452 241 -94 callsubr
        </CharString>
        <CharString name="uhornhookabove">
          80 -8 105 566 50 -45 callgsubr
          114 64 31 -33 callsubr
          -98 callgsubr
          -419 199 -104 callgsubr
        </CharString>
        <CharString name="uhorntilde">
          80 -8 105 -45 callgsubr
          209 -33 callsubr
          -98 callgsubr
          -277 142 -104 callsubr
        </CharString>
        <CharString name="uhungarumlaut">
          -33 -8 105 467 117 -45 callgsubr
          209 -33 callsubr
          412 499 rmoveto
          -289 vlineto
          -103 callsubr
          273 vlineto
          -334 65 rmoveto
          67 hlineto
          93 117 rlineto
          -98 hlineto
          72 -117 -102 callsubr
        </CharString>
        <CharString name="umacron">
          -33 -8 105 479 71 -45 callgsubr
          209 -33 callsubr
          412 499 rmoveto
          -289 vlineto
          -103 callsubr
          273 vlineto
          -109 148 -73 callsubr
        </CharString>
        <CharString name="underscore">
          -102 -93 69 hstem
          -24 vmoveto
          -69 546 69 vlineto
          endchar
        </CharString>
        <CharString name="uni021A">
          -73 callgsubr
        </CharString>
        <CharString name="uni021B">
          -85 callsubr
        </CharString>
        <CharString name="uni2116">
          454 21 -21 36 96 43 90 214 90 98 -20 hstem
          85 106 294 105 71 100 164 100 vstem
          485 -72 callgsubr
          -479 vlineto
          -299 479 rlineto
          -101 -667 106 hlineto
          155 0 162 156 vvcurveto
          299 -473 rlineto
          100 667 hlineto
          83 -631 rmoveto
          340 96 -340 hlineto
          170 437 rmoveto
          -116 -66 -70 -127 -127 66 -70 116 116 66 70 127 127 -66 70 -116 hvcurveto
          -304 vmoveto
          -49 -33 18 89 88 33 19 49 49 33 -19 -88 -89 -33 -18 -49 hvcurveto
          endchar
        </CharString>
        <CharString name="uogonek">
          -33 -175 58 616 -20 -45 callgsubr
          209 -33 callsubr
          332 -59 callsubr
          34 48 37 41 23 hvcurveto
          99 24 58 80 122 vvcurveto
          273 -121 -289 vlineto
          -80 -30 -33 -75 -74 -30 33 80 vhcurveto
          289 -121 -273 vlineto
          -137 72 -84 123 -11 vhcurveto
          -23 -15 -53 -39 -48 -75 callgsubr
          endchar
        </CharString>
        <CharString name="uring">
          -33 -8 105 438 43 86 43 -45 callgsubr
          17 53 68 53 18 -33 callsubr
          412 499 rmoveto
          -289 vlineto
          -103 callsubr
          273 vlineto
          -226 208 -42 callsubr
          -83 callsubr
        </CharString>
        <CharString name="utilde">
          -33 -8 105 -45 callgsubr
          209 -33 callsubr
          412 499 rmoveto
          -289 vlineto
          -103 callsubr
          273 vlineto
          -74 83 -104 callsubr
        </CharString>
        <CharString name="v">
          -77 21 -21 499 -20 hstem
          410 499 rmoveto
          -125 -377 -125 377 rlineto
          -128 hlineto
          191 -499 rlineto
          125 hlineto
          191 499 rlineto
          -129 hlineto
          endchar
        </CharString>
        <CharString name="w">
          187 21 -21 499 -20 hstem
          -90 callgsubr
          -127 hlineto
          endchar
        </CharString>
        <CharString name="wacute">
          187 21 -21 564 117 hstem
          -90 callgsubr
          -410 65 -102 callsubr
        </CharString>
        <CharString name="wcircumflex">
          187 21 -21 499 65 0 callsubr
          hstem
          -90 callgsubr
          -379 121 rmoveto
          -86 callsubr
        </CharString>
        <CharString name="wdieresis">
          187 21 -21 564 95 hstem
          287 -9 callsubr
          vstem
          -90 callgsubr
          -409 160 -91 callsubr
        </CharString>
        <CharString name="wgrave">
          187 21 -21 681 -20 hstem
          -90 callgsubr
          -411 182 -94 callsubr
        </CharString>
        <CharString name="x">
          -90 21 -21 499 -20 hstem
          530 hmoveto
          -185 263 167 236 rlineto
          -133 hlineto
          -100 -142 -100 142 rlineto
          -147 hlineto
          173 -247 -177 -252 rlineto
          130 hlineto
          113 159 112 -159 rlineto
          147 hlineto
          endchar
        </CharString>
        <CharString name="y">
          -11 callsubr
          594 -20 hstem
          -101 callsubr
          -127 hlineto
          endchar
        </CharString>
        <CharString name="yacute">
          -11 callsubr
          659 117 hstem
          -101 callsubr
          -209 65 rmoveto
          93 117 rlineto
          -98 hlineto
          -62 -117 rlineto
          endchar
        </CharString>
        <CharString name="ycircumflex">
          -11 callsubr
          594 65 0 callsubr
          hstem
          -101 callsubr
          -237 121 rmoveto
          -86 callsubr
        </CharString>
        <CharString name="ydieresis">
          -11 callsubr
          659 95 hstem
          139 -9 callsubr
          vstem
          -101 callsubr
          -267 160 -91 callsubr
        </CharString>
        <CharString name="ydotbelow">
          -11 callsubr
          -50 95 549 -20 hstemhm
          372 101 hintmask 10110000
          -101 callsubr
          hintmask 01110000
          -34 -549 -93 callgsubr
        </CharString>
        <CharString name="yen">
          34 21 -21 117 90 78 90 292 -20 hstem
          280 -77 callgsubr
          661 -72 callgsubr
          -145 hlineto
          -176 -271 -177 271 rlineto
          -145 hlineto
          200 -292 rlineto
          -79 -90 141 -78 -141 -90 141 -117 120 117 140 90 -140 78 140 90 -79 hlineto
          endchar
        </CharString>
        <CharString name="ygrave">
          -11 callsubr
          659 117 hstem
          -101 callsubr
          -260 182 -94 callsubr
        </CharString>
        <CharString name="yhookabove">
          -11 callsubr
          758 50 hstem
          277 64 vstem
          -101 callsubr
          -230 140 -104 callgsubr
        </CharString>
        <CharString name="ytilde">
          -11 callsubr
          hstem
          -101 callsubr
          -85 83 -104 callsubr
        </CharString>
        <CharString name="z">
          -160 0 109 281 109 hstem
          429 388 rmoveto
          111 -379 -109 225 vlineto
          -230 -278 rlineto
          -112 384 109 -233 vlineto
          233 279 rlineto
          endchar
        </CharString>
        <CharString name="zacute">
          -11 callgsubr
          65 117 hstem
          -65 callgsubr
          5 444 -102 callsubr
        </CharString>
        <CharString name="zcaron">
          -11 callgsubr
          187 -20 hstem
          -65 callgsubr
          41 510 -99 callsubr
        </CharString>
        <CharString name="zdotaccent">
          -11 callgsubr
          65 95 hstem
          189 101 vstem
          -65 callgsubr
          94 539 -93 callgsubr
        </CharString>
        <CharString name="zero">
          9 -11 101 482 101 hstem
          65 120 286 -77 callgsubr
          328 673 -44 callgsubr
          -583 vmoveto
          -67 -76 27 214 213 76 28 67 67 76 -28 -213 -214 -76 -27 -67 hvcurveto
          endchar
        </CharString>
        <CharString name="zero.denominator">
          -271 -5 -50 callsubr
          363 -87 callgsubr
        </CharString>
        <CharString name="zero.inferior">
          -271 -156 -50 callsubr
          212 -87 callgsubr
        </CharString>
        <CharString name="zero.numerator">
          -271 309 -50 callsubr
          677 -87 callgsubr
        </CharString>
        <CharString name="zero.slash">
          9 -8 101 482 101 hstem
          65 120 286 -77 callgsubr
          328 676 -44 callgsubr
          -101 vmoveto
          37 39 -8 -42 28 hvcurveto
          -241 -285 rlineto
          -4 27 -2 31 36 vvcurveto
          213 76 28 67 vhcurveto
          -482 vmoveto
          -36 -39 8 42 -28 hvcurveto
          240 284 rlineto
          4 -26 2 -31 -36 vvcurveto
          -214 -76 -27 -67 vhcurveto
          endchar
        </CharString>
        <CharString name="zero.superior">
          -271 457 -50 callsubr
          825 -87 callgsubr
        </CharString>
      <CharString index="0">
        260 -46 callgsubr
        -75 callsubr
        hvcurveto
        -97 vlineto
        15 37 49 10 60 hhcurveto
        78 28 -40 -54 hvcurveto
        4 -27 -30 3 -31 hhcurveto
        -200 -15 -120 -37 -83 56 -88 158 155 55 87 81 hvcurveto
        135 vlineto
        137 -78 75 -142 vhcurveto
        100 -333 rmoveto
        -46 -24 -30 -67 -63 -31 28 52 41 32 24 81 27 24 -3 -3 21 vhcurveto
        return
      </CharString>
      <CharString index="1">
        372 675 rmoveto
        -142 -169 -59 -283 -282 169 -59 142 142 170 59 282 283 -170 59 -142 hvcurveto
        -578 vmoveto
        -99 -92 29 208 207 92 28 99 100 92 -28 -207 -208 -92 -29 -100 hvcurveto
        return
      </CharString>
      <CharString index="2">
        -33 callgsubr
        129 hlineto
        -265 667 rlineto
        -132 hlineto
        -265 -667 rlineto
        129 hlineto
        61 160 rlineto
        282 hlineto
        -241 109 rmoveto
        100 262 99 -262 rlineto
        return
      </CharString>
      <CharString index="3">
        rmoveto
        -12 -13 -6 -20 -2 vhcurveto
        -55 48 23 vlineto
        0 49 7 48 vvcurveto
        48 -41 23 -50 -12 -19 -1 -2 -10 vhcurveto
        -49 vlineto
        1 9 10 1 12 hhcurveto
        19 18 -5 -19 hvcurveto
        endchar
      </CharString>
      <CharString index="4">
        -118 -49 -52 -111 -110 -49 52 118 vhcurveto
        395 -120 -385 vlineto
        -184 102 -106 177 178 102 106 184 vhcurveto
        return
      </CharString>
      <CharString index="5">
        -58 -62 13 96 -7 hvcurveto
        321 hlineto
        2 20 0 20 22 vvcurveto
        125 -67 117 -156 -163 -60 -115 -149 return
      </CharString>
      <CharString index="6">
        207 559 rmoveto
        324 108 -444 -667 444 108 -324 169 281 113 -281 return
      </CharString>
      <CharString index="7">
        -101 callgsubr
        hlineto
        return
      </CharString>
      <CharString index="8">
        -31 -7 22 22 -3 hvcurveto
        -70 hlineto
        -67 42 -40 69 69 42 40 67 vhcurveto
        return
      </CharString>
      <CharString index="9">
        671 534 rmoveto
        -89 -57 31 -44 rlineto
        -19 -33 -14 -10 -28 hhcurveto
        -5 95 -121 -289 hlineto
        -103 callsubr
        121 13 vlineto
        30 33 12 27 43 hvcurveto
        84 54 rlineto
        return
      </CharString>
      <CharString index="10">
        1 -47 -9 -27 -30 -5 rrcurveto
        -65 vlineto
        66 10 44 54 -2 80 rrcurveto
        endchar
      </CharString>
      <CharString index="11">
        181 484 rmoveto
        60 69 19 63 69 55 -24 -27 41 vhcurveto
        117 vlineto
        27 -52 -60 19 -67 hhcurveto
        -125 -113 -58 -136 hvcurveto
        -233 339 84 -148 vvcurveto
        -62 -69 -15 -69 -82 -63 29 35 -47 vhcurveto
        -122 vlineto
        return
      </CharString>
      <CharString index="12">
        277 -46 callgsubr
        -65 -152 -25 -231 -157 80 -87 145 26 25 3 5 25 hvcurveto
        -27 vlineto
        -32 0 -44 -119 -56 -44 10 10 -30 vhcurveto
        -107 vlineto
        -11 36 48 -9 60 hhcurveto
        196 29 115 68 hvcurveto
        355 vlineto
        79 -53 85 -151 vhcurveto
        84 -395 rmoveto
        -4 -20 -24 -3 -28 hhcurveto
        -67 -42 24 120 113 37 38 60 45 39 -11 -45 hvcurveto
        return
      </CharString>
      <CharString index="13">
        rmoveto
        24 13 20 21 34 vvcurveto
        77 -61 25 -63 -34 -30 -10 -12 -26 vhcurveto
        -66 vlineto
        13 21 29 10 36 hhcurveto
        hintmask 11101000
        26 37 -7 -32 -22 -17 -21 -42 hvcurveto
        -48 -53 46 hlineto
        hintmask 11100100
        62 17 -28 -27 -36 -32 -13 -45 -38 -33 12 16 -27 hvcurveto
        -66 vlineto
        -15 28 35 -11 39 hhcurveto
        59 78 25 87 44 -26 30 -35 12 hvcurveto
        endchar
      </CharString>
      <CharString index="14">
        rmoveto
        -101 -95 101 hlineto
        endchar
      </CharString>
      <CharString index="15">
        rmoveto
        -18 -30 -5 -13 -17 hvcurveto
        70 12 63 12 27 hhcurveto
        16 24 -1 -6 18 hvcurveto
        57 vlineto
        6 -21 -22 4 -19 hhcurveto
        -50 -116 -19 -180 -112 43 -57 85 93 34 68 57 73 -44 46 -78 hvcurveto
        -5 -187 rmoveto
        -22 -44 15 96 3 hvcurveto
        6 10 21 12 32 hhcurveto
        40 22 -24 -36 -15 -5 -54 -57 hvcurveto
        endchar
      </CharString>
      <CharString index="16">
        rmoveto
        -18 -16 -3 -2 -14 hvcurveto
        3 28 1 13 3 24 rrcurveto
        142 64 -197 hlineto
        -20 -172 36 -33 rlineto
        0 30 21 49 -1 vhcurveto
        27 -1 30 -10 2 -48 rrcurveto
        -24 1 -6 -37 -55 hhcurveto
        hintmask 11110000
        -44 -41 19 13 -20 hvcurveto
        -65 vlineto
        -14 26 36 -11 47 hhcurveto
        55 65 20 99 99 -67 21 -55 hvcurveto
        endchar
      </CharString>
      <CharString index="17">
        670 499 rmoveto
        -106 -360 -95 360 rlineto
        -103 hlineto
        -95 -360 -106 360 -35 callsubr
        177 -499 5 callgsubr
        83 287 82 -287 5 callgsubr
        177 499 rlineto
        return
      </CharString>
      <CharString index="18">
        311 -46 callgsubr
        -127 -98 -53 -2 -4 hvcurveto
        -452 0 callgsubr
        vlineto
        5 27 32 4 34 hhcurveto
        109 9 -47 -44 hvcurveto
        -310 119 300 vlineto
        130 -82 77 -139 vhcurveto
        return
      </CharString>
      <CharString index="19">
        675 rmoveto
        -188 -153 -153 -189 -188 153 -153 188 189 153 153 188 189 -153 153 -189 hvcurveto
        -632 vmoveto
        -160 -130 130 160 161 130 130 160 161 130 -130 -161 -160 -130 -130 -161 hvcurveto
        return
      </CharString>
      <CharString index="20">
        rmoveto
        -93 -48 -62 -122 -122 48 -62 93 94 48 62 122 122 -48 62 -94 hvcurveto
        -314 vmoveto
        -36 -41 15 115 115 41 15 36 36 41 -15 -115 -115 -41 -15 -36 hvcurveto
        endchar
      </CharString>
      <CharString index="21">
        rmoveto
        51 -33 56 -92 -41 -36 -15 -16 -27 vhcurveto
        -65 vlineto
        18 25 41 14 36 hhcurveto
        hintmask 11100000
        49 14 -22 -21 -67 -111 -95 -57 -42 hvcurveto
        -53 238 64 -130 vlineto
        58 49 66 73 71 vvcurveto
        endchar
      </CharString>
      <CharString index="22">
        36 16 -22 -24 -37 -29 -10 -23 -23 -29 10 37 24 16 22 36 hvcurveto
        -265 vmoveto
        return
      </CharString>
      <CharString index="23">
        rmoveto
        -61 hlineto
        -164 -204 rlineto
        -53 161 -102 64 102 47 57 -47 vlineto
        -64 hmoveto
        -85 hlineto
        85 111 rlineto
        return
      </CharString>
      <CharString index="24">
        566 -72 callgsubr
        -494 vlineto
        -343 494 rlineto
        -136 -55 callgsubr
        498 hlineto
        345 -498 rlineto
        134 667 return
      </CharString>
      <CharString index="25">
        444 255 rmoveto
        65 20 81 51 127 vvcurveto
        139 -93 75 -154 vhcurveto
        -256 -55 callgsubr
        235 108 hlineto
        159 -235 rlineto
        145 hlineto
        -412 345 rmoveto
        210 133 vlineto
        69 61 -15 -90 -89 -61 -16 -69 hvcurveto
        return
      </CharString>
      <CharString index="26">
        317 -72 callgsubr
        -230 -667 230 hlineto
        206 109 115 218 219 -109 115 -206 hvcurveto
        -558 vmoveto
        -110 449 110 hlineto
        139 56 -65 -160 -159 -56 -65 -139 hvcurveto
        return
      </CharString>
      <CharString index="27">
        -106 -8 106 145 77 87 100 return
      </CharString>
      <CharString index="28">
        hhcurveto
        -142 -169 -59 -283 -282 169 -59 142 return
      </CharString>
      <CharString index="29">
        56 21 -70 callsubr
        return
      </CharString>
      <CharString index="30">
        120 vstem
        return
      </CharString>
      <CharString index="31">
        547 560 rmoveto
        107 -479 -120 330 vlineto
        -334 -437 rlineto
        -110 483 120 -336 vlineto
        return
      </CharString>
      <CharString index="32">
        vvcurveto
        -67 54 0 18 53 45 29 53 12 vhcurveto
        return
      </CharString>
      <CharString index="33">
        -37 57 68 -12 64 hhcurveto
        142 170 59 282 104 -24 74 -36 52 hvcurveto
        -443 -229 rmoveto
        207 92 28 99 43 41 -5 -23 34 vhcurveto
        -290 -343 rlineto
        -12 34 -7 44 58 vvcurveto
        383 hmoveto
        -208 -92 -29 -100 -43 -41 5 23 -34 vhcurveto
        290 343 rlineto
        12 -33 8 -43 -58 vvcurveto
        return
      </CharString>
      <CharString index="34">
        -77 -40 callsubr
        50 547 120 hstemhm
        225 98 -98 120 -92 70 hintmask 11110000
        -37 callsubr
        vlineto
        hintmask 11101000
        120 547 214 -51 callsubr
        hintmask 11100100
        -306 -717 rmoveto
        -97 callgsubr
      </CharString>
      <CharString index="35">
        667 rmoveto
        return
      </CharString>
      <CharString index="36">
        63 255 rmoveto
        6 callgsubr
        vhcurveto
        530 -120 -191 vlineto
        5 -27 -28 3 -28 hhcurveto
        -149 -82 -89 -163 hvcurveto
        120 6 rmoveto
        118 46 33 69 31 26 -3 -5 22 vhcurveto
        -255 vlineto
        -42 -37 -12 -54 -77 -26 52 114 vhcurveto
        return
      </CharString>
      <CharString index="37">
        120 386 vlineto
        9 20 27 6 33 hhcurveto
        112 10 -47 -44 hvcurveto
        -310 119 300 vlineto
        130 -82 77 -139 vhcurveto
        return
      </CharString>
      <CharString index="38">
        -20 hstem
        94 120 202 119 vstem
        314 -46 callgsubr
        -39 -33 -6 -11 -28 hvcurveto
        199 -120 -689 -70 callgsubr
        return
      </CharString>
      <CharString index="39">
        64 40 rlineto
        -286 65 359 -59 vlineto
        return
      </CharString>
      <CharString index="40">
        -106 callsubr
        512 vmoveto
        return
      </CharString>
      <CharString index="41">
        -8 105 472 106 return
      </CharString>
      <CharString index="42">
        429 388 rmoveto
        111 -379 -120 225 vlineto
        -230 -267 rlineto
        -112 384 120 -233 vlineto
        return
      </CharString>
      <CharString index="43">
        -91 -122 rlineto
        79 hlineto
        142 158 rmoveto
        -12 -13 -6 -20 -2 vhcurveto
        -55 48 23 vlineto
        0 49 7 48 vvcurveto
        48 -41 23 -50 -12 -19 -1 -2 -10 vhcurveto
        -49 vlineto
        hintmask 11011110
        1 9 10 1 12 hhcurveto
        19 18 -5 -19 hvcurveto
        endchar
      </CharString>
      <CharString index="44">
        -118 148 -120 -148 -84 -103 84 -239 hlineto
        -103 60 -62 99 vhcurveto
        return
      </CharString>
      <CharString index="45">
        207 hmoveto
        -120 667 -51 callsubr
        return
      </CharString>
      <CharString index="46">
        64 104 53 82 65 hstemhm
        62 214 -65 65 -47 64 hintmask 11110000
        232 return
      </CharString>
      <CharString index="47">
        58 120 61 60 64 hstemhm
        62 229 -64 64 hintmask 11101000
        169 return
      </CharString>
      <CharString index="48">
        -20 hstem
        -105 callgsubr
        return
      </CharString>
      <CharString index="49">
        103 -66 callgsubr
        return
      </CharString>
      <CharString index="50">
        60 64 58 129 57 hstem
        49 65 125 65 vstem
        176 return
      </CharString>
      <CharString index="51">
        rmoveto
        -140 hlineto
        -169 -190 169 -191 rlineto
        140 hlineto
        -182 191 rlineto
        return
      </CharString>
      <CharString index="52">
        -667 120 return
      </CharString>
      <CharString index="53">
        712 -72 callgsubr
        -116 hlineto
        -36 -42 rlineto
        38 -56 -69 12 -63 hhcurveto
        -142 -169 -59 -283 -104 23 -74 36 -52 hvcurveto
        -87 -103 rlineto
        116 hlineto
        34 41 rlineto
        return
      </CharString>
      <CharString index="54">
        620 -72 callgsubr
        -161 hlineto
        -252 -282 rlineto
        282 -25 callsubr
        216 vlineto
        67 73 224 -289 rlineto
        150 hlineto
        -297 374 return
      </CharString>
      <CharString index="55">
        556 499 rmoveto
        -116 hlineto
        -21 -24 rlineto
        21 -35 -44 10 -29 callsubr
        -91 -166 -67 14 -54 26 -42 hvcurveto
        -72 -86 rlineto
        116 hlineto
        20 24 rlineto
        return
      </CharString>
      <CharString index="56">
        -20 hstemhm
        53 129 -65 65 return
      </CharString>
      <CharString index="57">
        333 609 rmoveto
        9 9 -1 -1 9 hvcurveto
        94 vlineto
        3 -15 -17 2 -17 hhcurveto
        return
      </CharString>
      <CharString index="58">
        -21 102 57 200 -20 hstem
        190 64 vstem
        254 return
      </CharString>
      <CharString index="59">
        56 119 184 return
      </CharString>
      <CharString index="60">
        -37 callgsubr
        2 21 2 return
      </CharString>
      <CharString index="61">
        507 rmoveto
        return
      </CharString>
      <CharString index="62">
        hstem
        -20 callsubr
        return
      </CharString>
      <CharString index="63">
        rmoveto
        -174 -89 -115 -227 -227 89 -115 174 175 88 115 227 227 -88 115 -175 hvcurveto
        return
      </CharString>
      <CharString index="64">
        -133 -89 133 -132 89 132 133 89 -133 hlineto
        return
      </CharString>
      <CharString index="65">
        444 108 -324 169 281 113 -281 169 return
      </CharString>
      <CharString index="66">
        0 callsubr
        hstemhm
        return
      </CharString>
      <CharString index="67">
        64 236 64 hstemhm
        56 229 vstemhm
        285 return
      </CharString>
      <CharString index="68">
        -58 -62 13 96 -7 hvcurveto
        321 hlineto
        2 20 0 20 22 vvcurveto
        -444 -92 rmoveto
        -46 -24 -30 -67 -63 -31 28 52 vhcurveto
        return
      </CharString>
      <CharString index="69">
        hstemhm
        -61 callsubr
        return
      </CharString>
      <CharString index="70">
        -47 callsubr
        -20 return
      </CharString>
      <CharString index="71">
        -20 -8 108 468 108 return
      </CharString>
      <CharString index="72">
        hstemhm
        -66 callsubr
        return
      </CharString>
      <CharString index="73">
        -145 95 42 return
      </CharString>
      <CharString index="74">
        554 hmoveto
        return
      </CharString>
      <CharString index="75">
        63 -63 107 return
      </CharString>
      <CharString index="76">
        rmoveto
        -107 -8 101 27 67 41 45 74 60 38 -22 -12 18 hvcurveto
        -177 7 -82 -29 -41 hhcurveto
        endchar
      </CharString>
      <CharString index="77">
        21 -12 callgsubr
        return
      </CharString>
      <CharString index="78">
        -100 -195 107 95 98 295 107 return
      </CharString>
      <CharString index="79">
        -30 callgsubr
        -20 return
      </CharString>
      <CharString index="80">
        221 689 rmoveto
        -120 -689 -51 callsubr
        return
      </CharString>
      <CharString index="81">
        -78 callgsubr
        430 -32 callgsubr
        return
      </CharString>
      <CharString index="82">
        -48 callgsubr
        121 return
      </CharString>
      <CharString index="83">
        -28 callgsubr
        hstem
        return
      </CharString>
      <CharString index="84">
        63 123 return
      </CharString>
      <CharString index="85">
        5 21 -21 235 110 210 112 return
      </CharString>
      <CharString index="86">
        -44 -17 11 44 hvcurveto
        246 vlineto
        return
      </CharString>
      <CharString index="87">
        475 201 hstem
        81 676 rmoveto
        18 -201 rlineto
        65 hlineto
        17 201 rlineto
        return
      </CharString>
      <CharString index="88">
        801 266 rmoveto
        125 -67 117 -156 -79 -57 -37 -34 -20 vhcurveto
        return
      </CharString>
      <CharString index="89">
        -20 2 21 2 34 48 37 41 23 hvcurveto
        return
      </CharString>
      <CharString index="90">
        -8 106 240 108 118 112 return
      </CharString>
      <CharString index="91">
        -173 -21 215 -21 return
      </CharString>
      <CharString index="92">
        -120 120 return
      </CharString>
      <CharString index="93">
        -8 110 return
      </CharString>
      <CharString index="94">
        -4 50 -47 -21 184 56 return
      </CharString>
      <CharString index="95">
        -21 667 return
      </CharString>
      <CharString index="96">
        -160 0 120 259 120 return
      </CharString>
      <CharString index="97">
        64 104 53 82 65 7 -20 hstemhm
        74 214 -65 65 -47 64 return
      </CharString>
      <CharString index="98">
        -333 60 247 hlineto
        103 -148 103 148 rlineto
        -247 return
      </CharString>
      <CharString index="99">
        9 7 -1 -1 6 hvcurveto
        80 vlineto
        2 -12 -26 2 -14 hhcurveto
        return
      </CharString>
      <CharString index="100">
        -103 85 -396 120 396 115 103 -115 vlineto
        return
      </CharString>
      <CharString index="101">
        -20 -71 callsubr
        vstem
        207 return
      </CharString>
      <CharString index="102">
        -95 -90 -42 -165 -1 hvcurveto
        -85 return
      </CharString>
      <CharString index="103">
        53 630 rmoveto
        -69 vlineto
        return
      </CharString>
      <CharString index="104">
        85 -21 381 -20 hstem
        return
      </CharString>
      <CharString index="105">
        0 57 -41 callgsubr
        return
      </CharString>
      <CharString index="106">
        120 -120 return
      </CharString>
      <CharString index="107">
        120 392 return
      </CharString>
      <CharString index="108">
        3 74 -56 -21 296 75 219 74 3 -20 hstemhm
        return
      </CharString>
      <CharString index="109">
        -20 hstem
        83 120 193 -33 callsubr
        285 return
      </CharString>
      <CharString index="110">
        121 231 -33 callsubr
        return
      </CharString>
      <CharString index="111">
        -115 -109 115 hlineto
        return
      </CharString>
      <CharString index="112">
        rlineto
        -51 callsubr
        return
      </CharString>
      <CharString index="113">
        -237 156 -26 67 155 56 87 81 return
      </CharString>
      <CharString index="114">
        11 callsubr
        hvcurveto
        return
      </CharString>
      <CharString index="115">
        hstemhm
        3 213 -15 callgsubr
        hintmask 11010000
        return
      </CharString>
      <CharString index="116">
        -442 -501 rmoveto
        -99 -92 29 208 return
      </CharString>
      <CharString index="117">
        82 hstemhm
        10 218 -104 104 -104 218 return
      </CharString>
      <CharString index="118">
        -164 -21 175 93 320 103 hstem
        return
      </CharString>
</ttFont>
